<svg width="92" height="42" viewBox="0 0 92 42" fill="none" xmlns="http://www.w3.org/2000/svg">
<g clip-path="url(#clip0_244_26172)">
<path d="M64.4828 4.15028C64.16 4.14878 63.8498 4.27531 63.6202 4.50213C63.3906 4.72896 63.2603 5.03757 63.2578 5.36032C63.2632 5.67653 63.3924 5.97801 63.6175 6.20006C63.8428 6.42212 64.146 6.54706 64.4623 6.54806C64.7786 6.54907 65.0826 6.42607 65.3092 6.20545C65.5358 5.98484 65.6669 5.68418 65.6743 5.36802C65.6786 5.20915 65.6509 5.05104 65.5928 4.90309C65.5348 4.75514 65.4476 4.62036 65.3365 4.50677C65.2253 4.39318 65.0925 4.30308 64.9458 4.24184C64.7991 4.18061 64.6416 4.14947 64.4828 4.15028Z" fill="#ED2024"/>
<path d="M63.5156 14.7513H65.4135V7.17661L63.5156 7.48437V14.7513Z" fill="#ED2024"/>
<path d="M59.3749 7.04175C58.4784 7.05909 57.5992 7.29016 56.8101 7.71576L56.5962 7.82553L57.1091 8.96529L57.3979 8.82886C57.9574 8.55612 58.5709 8.41256 59.1933 8.40875C59.8816 8.43696 60.1643 8.75294 60.1643 9.41204V9.79935H59.0358C57.2261 9.79935 56.0997 10.759 56.0684 12.2477C56.0774 12.607 56.1579 12.9609 56.3052 13.2887C56.4525 13.6165 56.6636 13.9118 56.9263 14.1571C57.1888 14.4025 57.4977 14.593 57.8348 14.7177C58.1719 14.8424 58.5306 14.8986 58.8896 14.8832C59.4753 14.9065 60.0598 14.8136 60.6094 14.6099C61.159 14.4062 61.6629 14.0956 62.0919 13.6962V9.65418C62.0914 7.68805 60.687 7.04175 59.3749 7.04175ZM60.1602 13.3177C59.86 13.4886 59.5185 13.5734 59.1733 13.5628C59.0137 13.564 58.8559 13.5305 58.7106 13.4646C58.5654 13.3987 58.4361 13.3019 58.3319 13.1811C58.2277 13.0603 58.1511 12.9182 58.1073 12.7648C58.0635 12.6115 58.0535 12.4504 58.0782 12.2928C58.0761 12.124 58.1099 11.9566 58.177 11.8017C58.2442 11.6469 58.3434 11.5079 58.468 11.394C58.5926 11.28 58.7397 11.1937 58.9 11.1406C59.0603 11.0875 59.23 11.0688 59.398 11.0858H60.1602V13.3177Z" fill="#ED2024"/>
<path d="M79.4009 13.5485C79.1978 13.561 78.9943 13.5301 78.8041 13.4578C78.6138 13.3856 78.4411 13.2736 78.2976 13.1294C77.9181 12.5597 77.7576 11.8719 77.8456 11.193H81.9425V11.0038C81.9067 8.32103 80.9931 7.10022 78.99 7.10022C76.7561 7.10022 75.8857 9.15612 75.8688 11.0868C75.8442 11.6742 75.9468 12.2599 76.1696 12.8039C76.3922 13.3479 76.7299 13.8374 77.1593 14.2389C77.7436 14.6922 78.4681 14.9265 79.207 14.9011C79.6638 14.9023 80.1182 14.8351 80.555 14.7016C81.0629 14.5415 81.5445 14.3075 81.9841 14.007L81.4476 12.9042C80.8447 13.318 80.1321 13.5423 79.4009 13.5485ZM78.9906 8.51544C79.8349 8.51544 79.9595 9.43204 79.9595 10.003H77.9015C77.9344 9.26897 78.2396 8.51544 78.9906 8.51544Z" fill="#ED2024"/>
<path d="M66.9375 8.53284V14.7518H68.8759V8.89959C69.2444 8.60056 69.7008 8.43079 70.1752 8.4164C70.4372 8.40108 70.6999 8.42793 70.9533 8.4959L71.4894 7.29304C71.0816 7.13129 70.6456 7.05314 70.207 7.06325C69.5895 7.06573 68.9794 7.19782 68.4163 7.45097C67.853 7.70412 67.3493 8.07269 66.9375 8.53284Z" fill="#ED2024"/>
<path d="M85.9725 13.5536C85.182 13.4931 85.0174 13.1432 85.0174 12.5683V5.07922L83.1113 5.40443V12.4446C83.1113 14.1132 84.0172 14.8283 85.534 14.8283C85.7781 14.8217 86.0212 14.7962 86.2613 14.7518V13.5572C86.2613 13.5572 86.0807 13.5623 85.9725 13.5536Z" fill="#ED2024"/>
<path d="M73.9472 5.08948L71.998 5.40237V12.4769C71.998 14.0614 72.9244 14.8113 74.476 14.8113C74.7191 14.809 74.9614 14.7855 75.2004 14.741V13.5613C75.1788 13.5613 75.0352 13.5613 74.9254 13.5552C74.1047 13.5269 73.9468 13.076 73.9468 12.5544V8.57392H75.2004V7.17974H73.9468L73.9472 5.08948Z" fill="#ED2024"/>
<path d="M3.76348 20.3952H0L7.52799 27.9238L9.41001 26.0418L3.76348 20.3952Z" fill="#ED2024"/>
<path d="M5.64978 33.565L9.40918 29.8051L7.52716 27.9236L1.88477 33.566L5.64978 33.565Z" fill="#ED2024"/>
<path d="M20.7006 37.3326L11.2921 27.9236L9.41016 29.8051L16.9371 37.332L20.7006 37.3326Z" fill="#ED2024"/>
<path d="M20.7006 14.7518L9.41016 26.0423L11.2921 27.9243L24.4641 14.7518H20.7006Z" fill="#ED2024"/>
<path d="M34.8018 31.2333C34.5177 30.9962 34.2897 30.699 34.1343 30.3632C33.9788 30.0274 33.8996 29.6613 33.9026 29.2913V22.4332H36.9628V20.3942H33.9026V17.573H31.8898V29.2907C31.8667 29.8917 31.9755 30.4905 32.2085 31.0449C32.4416 31.5993 32.7933 32.0959 33.2389 32.4998C34.108 33.2232 35.2124 33.6025 36.3427 33.5657C36.6312 33.5652 36.9194 33.5459 37.2055 33.5077L37.308 33.4934V31.7226H37.3035C37.3035 31.7226 37.1865 31.7473 37.1587 31.7524C36.7523 31.8496 36.3289 31.8535 35.9207 31.7635C35.5124 31.6737 35.1299 31.4923 34.8018 31.2333Z" fill="#191919"/>
<path d="M39.0921 24.7932L39.084 33.5671H41.1213L41.1239 25.0168C41.1239 25.0168 41.0726 23.7016 41.7851 22.9865C42.3663 22.4038 43.4312 22.0899 44.9048 22.2925L42.969 20.3567H42.9649C42.9649 20.3567 42.7131 20.388 42.5848 20.408C41.5707 20.5931 40.6581 21.1398 40.0165 21.9468C39.3873 22.7595 39.0605 23.7658 39.0921 24.7932Z" fill="#191919"/>
<path d="M47.7943 24.5369C47.7843 24.2705 47.8292 24.0049 47.9262 23.7567C48.0233 23.5084 48.1705 23.2828 48.3586 23.094C49.0269 22.5254 49.8895 22.2377 50.7654 22.2911C52.2688 22.2911 53.7963 23.0133 53.7963 24.4922V25.9285H48.5437L50.2565 27.6417H55.7342V24.542C55.7514 23.9151 55.6186 23.2932 55.347 22.728C55.0753 22.1628 54.6725 21.6706 54.1724 21.2924C53.179 20.5851 51.9824 20.2204 50.7633 20.2538C49.5312 20.2188 48.3208 20.5831 47.3127 21.2924C46.8078 21.6674 46.4005 22.1586 46.1254 22.7241C45.8502 23.2897 45.7152 23.9132 45.7318 24.542V29.4354C45.7167 30.0627 45.8524 30.6844 46.1275 31.2483C46.4026 31.8121 46.809 32.3017 47.3127 32.6757C48.3083 33.4112 49.5243 33.7864 50.7612 33.7396C52.873 33.6775 54.0118 33.045 55.2105 31.4616L53.7065 29.9577L53.6979 29.9771C53.4302 30.5206 53.0118 30.9755 52.4927 31.2877C51.9735 31.5998 51.3755 31.756 50.7699 31.7376C49.8863 31.7745 49.0225 31.4685 48.3591 30.8835C48.1707 30.694 48.0233 30.4676 47.9262 30.2185C47.8291 29.9695 47.7844 29.7031 47.7949 29.436L47.7943 24.5369Z" fill="#191919"/>
<path d="M62.2329 20.25C60.5228 20.2224 58.8649 20.8399 57.5897 21.9796L58.9074 23.2974C59.8558 22.658 60.9692 22.3074 62.1128 22.2879C62.5571 22.2407 63.0063 22.2861 63.4321 22.4212C63.8579 22.5565 64.2511 22.7784 64.5868 23.0732C64.7763 23.2467 64.9283 23.457 65.0336 23.6913C65.1389 23.9255 65.1953 24.1788 65.1992 24.4356V25.7328L64.7832 25.542C63.994 25.2621 63.1641 25.1139 62.3267 25.1035C59.0885 25.1035 57.2188 26.6074 57.1973 29.2291C57.1973 31.8569 59.1137 33.7112 61.8569 33.7374H62.0795C63.8345 33.7342 65.5766 33.4366 67.2331 32.8567L67.2469 32.852V24.4351C67.2623 23.9147 67.1709 23.3966 66.9783 22.9129C66.7857 22.4292 66.4961 21.99 66.1271 21.6226C65.0511 20.6862 63.6583 20.1952 62.2329 20.25ZM65.1992 31.4979C64.2626 31.8629 63.2673 32.0541 62.2621 32.0621C62.1681 32.0621 62.0734 32.0601 61.978 32.0559C60.2796 31.9841 59.1824 30.8884 59.1824 29.265C59.1742 28.9737 59.2254 28.6838 59.3328 28.4129C59.4402 28.142 59.6016 27.8958 59.8071 27.6892C60.4787 27.1338 61.3421 26.8653 62.2103 26.9419C63.1568 26.9825 64.0933 27.1511 64.9946 27.443L65.1997 27.5082L65.1992 31.4979Z" fill="#191919"/>
<path d="M81.2262 20.3033C80.0493 20.3429 78.9275 20.8108 78.071 21.619L77.8735 21.795L77.676 21.619C77.1849 21.1704 76.6096 20.8239 75.9834 20.5996C75.3573 20.3753 74.6928 20.2775 74.0285 20.312C72.5553 20.3414 71.1155 20.7553 69.8516 21.5128L69.8398 21.5189V33.564H71.9244V22.8624L72.0727 22.7768C73.0354 22.2192 74.8836 22.094 75.8531 22.6941C76.1576 22.8422 76.4151 23.0719 76.5968 23.3578C76.7785 23.6436 76.8772 23.9743 76.8821 24.3129V33.5655H78.9159V24.4027C78.8856 23.125 80.2039 22.3397 81.3047 22.2879C81.7011 22.2273 82.106 22.2565 82.4896 22.3733C82.8733 22.4901 83.2258 22.6917 83.5211 22.9629C83.7475 23.2101 83.9222 23.5001 84.0348 23.8158C84.1475 24.1315 84.1959 24.4666 84.1772 24.8013V33.5655H86.2618V24.7459C86.2618 23.4769 86.0427 22.5069 85.0846 21.5692C84.0336 20.5424 82.7978 20.2422 81.2262 20.3033Z" fill="#191919"/>
<path d="M25.6507 26.0011C24.1319 25.7313 22.7269 25.2215 22.7064 24.0294C22.7271 23.6587 22.8594 23.303 23.0857 23.0087C23.312 22.7145 23.6219 22.4954 23.9749 22.3803C25.8728 21.6822 27.6989 22.867 28.0887 23.2415L29.4649 21.8653C28.9392 21.3448 28.3156 20.9335 27.6302 20.655C26.9448 20.3766 26.211 20.2365 25.4712 20.2429C24.3675 20.1947 23.2752 20.4824 22.3386 21.0682C21.8534 21.3801 21.4508 21.805 21.1656 22.3063C20.8802 22.8078 20.7205 23.3708 20.7003 23.9473C20.6176 26.9978 23.7482 27.6185 25.3588 27.9027L25.6378 27.954C27.6825 28.3909 28.0031 29.1511 28.0103 29.899C28.0225 31.2035 26.7161 31.8144 25.5394 31.8256C24.7593 31.8674 23.9826 31.6961 23.2924 31.3301C22.6022 30.9642 22.0246 30.4174 21.6215 29.7483L21.6071 29.7262L20.293 31.0409C20.8328 31.9311 21.6083 32.6545 22.5339 33.1313C23.4593 33.608 24.4986 33.8194 25.5369 33.742C26.6411 33.7424 27.719 33.4052 28.6263 32.7757C29.0779 32.4469 29.4408 32.0112 29.6825 31.5076C29.9242 31.004 30.0372 30.4483 30.0112 29.8903C29.9507 27.658 28.4955 26.5285 25.6507 26.0011Z" fill="#191919"/>
</g>
<defs>
<clipPath id="clip0_244_26172">
<rect width="91.3043" height="42" fill="white"/>
</clipPath>
</defs>
</svg>
