<svg width="42" height="42" viewBox="0 0 42 42" fill="none" xmlns="http://www.w3.org/2000/svg">
<path d="M21 0C26.5695 0 31.911 2.21249 35.8492 6.15076C39.7875 10.089 42 15.4305 42 21C42 26.5695 39.7875 31.911 35.8492 35.8492C31.911 39.7875 26.5695 42 21 42C15.4305 42 10.089 39.7875 6.15076 35.8492C2.21249 31.911 0 26.5695 0 21C0 15.4305 2.21249 10.089 6.15076 6.15076C10.089 2.21249 15.4305 0 21 0Z" fill="#D13732"/>
<path d="M24.0319 29.5576H17.4694C17.2772 29.5138 17.0776 29.5139 16.8854 29.5578C16.6932 29.6017 16.5133 29.6884 16.3592 29.8113C16.2051 29.9342 16.0807 30.0903 15.9952 30.2679C15.9096 30.4456 15.8652 30.6402 15.8652 30.8373C15.8652 31.0345 15.9096 31.2291 15.9952 31.4067C16.0807 31.5843 16.2051 31.7404 16.3592 31.8633C16.5133 31.9863 16.6932 32.0729 16.8854 32.1168C17.0776 32.1608 17.2772 32.1608 17.4694 32.117H24.0319C24.38 32.117 24.7138 31.9787 24.96 31.7326C25.2061 31.4864 25.3444 31.1526 25.3444 30.8045C25.3452 30.4718 25.2196 30.1511 24.993 29.9075C24.7664 29.6638 24.4557 29.5153 24.1238 29.492L24.0319 29.5576Z" fill="white"/>
<path d="M30.7785 10.0801H10.7891C10.1751 10.0624 9.57913 10.2886 9.13148 10.7092C8.68382 11.1298 8.42096 11.7105 8.40039 12.3244V24.3469C8.40038 24.9782 8.65025 25.5838 9.09539 26.0314C9.54054 26.479 10.1448 26.7322 10.776 26.7357H30.8704C31.5017 26.7357 32.1073 26.4858 32.5549 26.0407C33.0025 25.5955 33.2557 24.9913 33.2591 24.3601V12.3901C33.2221 11.7599 32.9436 11.1683 32.4816 10.7381C32.0197 10.3079 31.4097 10.0722 30.7785 10.0801ZM23.8616 19.2676L19.7535 22.5094C19.6743 22.5888 19.5802 22.6518 19.4766 22.6947C19.373 22.7377 19.2619 22.7598 19.1498 22.7598C19.0376 22.7598 18.9266 22.7377 18.823 22.6947C18.7194 22.6518 18.6253 22.5888 18.546 22.5094C18.3993 22.3523 18.3153 22.1468 18.3098 21.9319V15.5532C18.3132 15.3257 18.406 15.1088 18.5681 14.9491C18.7302 14.7895 18.9485 14.7 19.176 14.7001C19.3935 14.7053 19.6006 14.7947 19.7535 14.9494L23.8616 18.1913C23.9982 18.345 24.0736 18.5435 24.0736 18.7491C24.0736 18.9547 23.9982 19.1532 23.8616 19.3069V19.2676Z" fill="white"/>
</svg>
