<svg width="92" height="42" viewBox="0 0 92 42" fill="none" xmlns="http://www.w3.org/2000/svg">
<path d="M79.9928 23.8942H84.7382V28.3085C83.8674 28.6406 82.1581 28.9728 80.5376 28.9728C75.2887 28.9728 73.5432 26.3083 73.5432 20.8975C73.5432 15.7336 75.205 12.6948 80.4489 12.6948C83.3713 12.6948 85.0293 13.6118 86.4037 15.3604L90.0296 12.0292C87.8155 8.87206 83.9511 7.91522 80.3227 7.91522C72.1651 7.91198 67.8758 12.3616 67.8758 20.8544C67.8758 29.3051 71.7515 33.8862 80.2791 33.8862C84.1948 33.8862 88.0219 32.8895 90.106 31.4288V19.1896H79.993L79.9928 23.8942ZM55.1014 28.5988H67.1777V33.5114H49.2734V8.28547H55.1018L55.1014 28.5988Z" fill="#191919"/>
<path d="M34.8286 34.7959C42.4468 27.1777 42.4463 14.8252 34.8279 7.20872C27.2094 -0.40916 14.8572 -0.410077 7.24072 7.20797C-0.377469 14.826 -0.377011 27.1786 7.24147 34.7951C14.8598 42.4136 27.2121 42.4138 34.8286 34.7959Z" fill="#A50034"/>
<path d="M15.1167 17.197C15.5615 17.1949 15.9957 17.061 16.3645 16.8122C16.7332 16.5636 17.0201 16.2112 17.1888 15.7997C17.3576 15.3881 17.4005 14.9357 17.3125 14.4997C17.2242 14.0637 17.009 13.6636 16.6937 13.3499C16.3784 13.0361 15.9772 12.8227 15.5407 12.7368C15.1044 12.6508 14.6523 12.696 14.2416 12.8667C13.8307 13.0375 13.4798 13.326 13.2329 13.6961C12.986 14.0661 12.8543 14.5009 12.8543 14.9457C12.8549 15.242 12.914 15.5354 13.0281 15.8089C13.1423 16.0825 13.3091 16.3309 13.5191 16.5399C13.7293 16.749 13.9786 16.9147 14.2526 17.0274C14.5267 17.1402 14.8203 17.1978 15.1167 17.197ZM35.7501 21.62H25.8297V20.1505H37.2041C37.2196 20.4352 37.2273 20.7197 37.2273 21.0077C37.2273 29.8561 30.0159 37.0288 21.1222 37.0288C12.2283 37.0288 5.01562 29.8605 5.01562 21.0077C5.01562 12.1556 12.226 4.98657 21.1207 4.98657C21.3555 4.98657 21.5891 4.99132 21.8217 5.00094V6.45943C21.5891 6.44906 21.3562 6.44393 21.1228 6.44393C13.0388 6.44393 6.48301 12.9645 6.48301 21.0062C6.48301 29.048 13.0379 35.5698 21.1228 35.5698C28.9855 35.5698 35.4089 29.4004 35.7489 21.6609L35.7501 21.62ZM25.8071 27.7421H21.8203V12.7637H20.3464V29.2216H21.8237V29.2117H25.8105L25.8071 27.7421Z" fill="white"/>
</svg>
