<svg width="71" height="42" viewBox="0 0 71 42" fill="none" xmlns="http://www.w3.org/2000/svg">
<path d="M22.8215 13.3482V27.8455C22.8215 28.0354 22.6646 28.1937 22.4452 28.1937H20.6576C20.4695 28.1937 20.2812 28.0354 20.2812 27.8455V13.3482C20.3126 13.1583 20.4695 13 20.6889 13H22.4765C22.6646 13 22.8215 13.1583 22.8215 13.3482Z" fill="#191919"/>
<path d="M27.5252 18.0653H25.7377C25.5495 18.0653 25.3613 18.1919 25.3613 18.3819V27.8778C25.3613 28.0361 25.5182 28.1944 25.7377 28.1944H27.5252C27.7134 28.1944 27.9015 28.0678 27.9015 27.8778V18.3819C27.9015 18.1919 27.7447 18.0653 27.5252 18.0653Z" fill="#191919"/>
<path d="M27.2762 14.2671H26.0218C25.6768 14.2671 25.3945 14.552 25.3945 14.9001V16.1663C25.3945 16.5145 25.6768 16.7994 26.0218 16.7994H27.2762C27.6212 16.7994 27.9034 16.5145 27.9034 16.1663V14.9001C27.9034 14.552 27.6212 14.2671 27.2762 14.2671Z" fill="#191919"/>
<path d="M46.9546 22.3377V27.7821C46.9546 28.0037 46.7959 28.162 46.5741 28.162H44.8944C44.6726 28.162 44.5141 28.0037 44.5141 27.7821V22.6543C44.5141 21.7996 44.324 21.1349 43.9753 20.7234C43.6268 20.2803 43.088 20.0904 42.3907 20.0904C41.6302 20.0904 41.0281 20.3436 40.5844 20.85C40.1408 21.3565 39.9189 22.0845 39.9189 23.0341V27.8138C39.9189 28.0354 39.7605 28.1937 39.5387 28.1937H37.8589C37.6371 28.1937 37.4787 28.0354 37.4787 27.8138V22.6543C37.4787 21.7996 37.2886 21.1349 36.94 20.7234C36.5913 20.2803 36.0526 20.0904 35.3554 20.0904C34.5948 20.0904 33.9927 20.3436 33.549 20.85C33.1053 21.3565 32.8835 22.0845 32.8835 23.0341V27.8138C32.8835 28.0354 32.725 28.1937 32.5032 28.1937H30.8236C30.6018 28.1937 30.4434 28.0354 30.4434 27.8138V18.3811C30.4434 18.1595 30.6018 18.0012 30.8236 18.0012H32.3765C32.5666 18.0012 32.7568 18.1595 32.7568 18.3811V19.1724C33.1053 18.7926 33.549 18.476 34.0244 18.2545C34.5948 18.0012 35.197 17.9062 35.8941 17.9062C36.6231 17.9062 37.2886 18.0645 37.8589 18.3494C38.3026 18.571 38.6513 18.8559 38.9681 19.2357C39.095 19.394 39.3168 19.394 39.4435 19.2674C39.7922 18.8875 40.2358 18.6026 40.7111 18.3811C41.345 18.0962 42.0739 17.9379 42.8344 17.9379C44.0705 17.9379 45.0845 18.3177 45.8134 19.0458C46.5741 19.7422 46.9546 20.85 46.9546 22.3377Z" fill="#191919"/>
<path d="M57.9474 20.3192C57.507 19.5572 56.909 18.954 56.1226 18.5413C55.3356 18.1285 54.4548 17.9062 53.4795 17.9062C52.441 17.9062 51.5283 18.1285 50.7419 18.5413C49.955 18.9858 49.3256 19.589 48.8852 20.3827C48.4448 21.1765 48.2246 22.0972 48.2246 23.1132C48.2246 24.1609 48.4448 25.0817 48.9165 25.8754C49.357 26.6692 49.9863 27.3042 50.8046 27.7169C51.5915 28.1613 52.5036 28.3518 53.5107 28.3518C54.7381 28.3518 55.776 28.0661 56.6256 27.4629C57.2868 26.9866 57.7898 26.4151 58.1363 25.7166C58.1363 25.7166 58.1676 25.6849 58.1676 25.6532C58.1676 25.6214 58.1989 25.5897 58.1989 25.5579C58.1989 25.3992 58.0732 25.2722 57.9161 25.2722H55.965C55.8705 25.2722 55.776 25.3356 55.7134 25.4309C55.2412 26.0977 54.5492 26.4469 53.5733 26.4469C52.8183 26.4469 52.1577 26.2247 51.6228 25.7484C51.1192 25.3039 50.8363 24.7324 50.7419 24.0022H58.2307C58.4509 24.0022 58.6399 23.8435 58.6711 23.6212C58.7025 23.399 58.7025 23.1449 58.7025 22.8592C58.6081 21.9702 58.3878 21.0812 57.9474 20.3192ZM50.9303 22.2877C50.7419 22.2877 50.5844 22.0972 50.6156 21.9067C50.7732 21.3352 51.0566 20.8272 51.4652 20.478C52.0005 20.0335 52.6299 19.8113 53.3531 19.8113C54.1714 19.8113 54.8321 20.0335 55.3988 20.5097C55.8705 20.8907 56.1226 21.367 56.217 21.9702C56.2484 22.1607 56.0907 22.3195 55.9024 22.3195H50.9303V22.2877Z" fill="#191919"/>
<path d="M69.4348 27.6896L65.9848 23.3034C65.9217 23.2088 65.9217 23.051 65.9848 22.9247L69.4348 18.5387C69.5934 18.3493 69.4348 18.0653 69.1817 18.0653H67.1243C67.0294 18.0653 66.9344 18.1284 66.8713 18.1916L64.6871 20.7159C64.5603 20.9053 64.3072 20.9053 64.181 20.7159L62.0281 18.1916C61.9649 18.0969 61.87 18.0653 61.7751 18.0653H59.6858C59.4327 18.0653 59.2747 18.3493 59.4328 18.5387L62.8515 22.9563C62.9147 23.051 62.9147 23.2088 62.8515 23.335L59.4014 27.7211C59.2428 27.9105 59.4014 28.1944 59.6545 28.1944H61.7119C61.8068 28.1944 61.9018 28.1313 61.9649 28.0682L64.1173 25.3545C64.2442 25.1652 64.4972 25.1652 64.624 25.3545L66.8077 28.0682C66.8713 28.1628 66.9662 28.1944 67.0613 28.1944H69.1186C69.4348 28.1944 69.5934 27.9105 69.4348 27.6896Z" fill="#191919"/>
<path d="M12.3694 22.6234L8.10749 18.2869C7.98028 18.1286 7.75766 18.0653 7.56679 18.0653C7.37594 18.0653 7.15332 18.1286 7.02611 18.2869L2.76422 22.6234C2.38256 23.0348 2.41438 23.668 2.85964 24.0162C4.22728 25.124 5.91293 25.6621 7.56679 25.6621C9.22067 25.6621 10.9063 25.124 12.3058 24.0477C12.751 23.6996 12.7829 23.0348 12.3694 22.6234Z" fill="#0AA461"/>
</svg>
