<svg width="55" height="42" viewBox="0 0 55 42" fill="none" xmlns="http://www.w3.org/2000/svg">
<g clip-path="url(#clip0_244_26137)">
<path d="M7.01261 0H47.545C51.4334 0 54.5576 3.13184 54.5576 7.01261V21.2042C54.5576 25.0926 51.4258 28.2169 47.545 28.2169H7.01261C3.12428 28.2169 0 25.085 0 21.2042V7.01261C0 3.13184 3.13184 0 7.01261 0Z" fill="#E82328"/>
<path d="M14.2828 6.83862C9.93306 6.83862 6.69531 10.0991 6.69531 14.1084V14.1614C6.69531 18.1783 9.90281 21.3782 14.2299 21.3782C18.557 21.3782 21.8174 18.1178 21.8174 14.1084V14.0555C21.8174 10.0386 18.6099 6.83862 14.2828 6.83862ZM14.2299 10.2504C16.4161 10.2504 17.9064 12.0508 17.9064 14.1084V14.1614C17.9064 16.219 16.5523 17.9665 14.2828 17.9665C12.0134 17.9665 12.8985 17.7623 12.3538 17.4218L9.47161 18.7911L11.0527 15.9845C10.7652 15.4247 10.6063 14.7817 10.6063 14.116V14.063C10.6063 12.0054 11.9604 10.2579 14.2299 10.2579V10.2504Z" fill="white"/>
<path d="M21.6895 21.0681H25.6534V13.2763C25.6534 11.4003 26.6142 10.432 28.1271 10.432C29.6401 10.432 30.5252 11.3927 30.5252 13.2763V21.0681H34.4892V12.0281C34.4892 8.82064 32.7417 6.83865 29.746 6.83865C26.7503 6.83865 26.5688 7.9053 25.6534 9.07785V7.09586H21.6895V21.0681Z" fill="white"/>
<path d="M41.6009 21.3782C44.1275 21.3782 46.0036 20.3872 47.3047 18.7684L45.0353 16.7637C43.9384 17.7774 42.9777 18.1934 41.6462 18.1934C40.3148 18.1934 38.6203 17.2554 38.2345 15.455H47.9553C47.978 15.0919 48.0083 14.7287 48.0083 14.411C48.0083 10.447 45.875 6.82349 41.2075 6.82349C36.54 6.82349 34.3008 10.1066 34.3008 14.0933V14.1463C34.3008 18.4204 37.4024 21.3631 41.6009 21.3631V21.3782ZM38.1891 12.9888C38.4993 11.1884 39.5735 10.0158 41.215 10.0158C42.8566 10.0158 43.9233 11.2111 44.1578 12.9888H38.1891Z" fill="white"/>
<path d="M5.96857 25.5162H24.6991C26.7265 25.5162 28.005 27.1502 27.5511 29.1776L25.4178 38.8682C25.1228 40.2072 23.814 41.2814 22.4751 41.2814H3.75208C1.7247 41.2814 0.44624 39.6474 0.900131 37.62L3.03342 27.9294C3.32844 26.5904 4.63716 25.5162 5.97614 25.5162H5.96857Z" fill="white" stroke="#4C4C4C" stroke-width="1.42975" stroke-miterlimit="18.7" stroke-linecap="square"/>
<path d="M9.3215 39.2615C10.1839 39.2615 10.8496 39.0572 11.4623 38.7395L11.9162 36.6819C11.5002 36.8861 11.0538 36.9996 10.5848 36.9996C10.1158 36.9996 9.82078 36.7121 9.94938 36.1221L10.7966 32.264H12.9224L13.4065 30.0702H11.2808L11.7876 27.7629H9.22316L8.71631 30.0702H7.63454L7.15039 32.264H8.23216L7.28656 36.5457C6.8251 38.6336 7.74801 39.2615 9.3215 39.2615Z" fill="#4C4C4C"/>
<path d="M14.0117 39.1784H16.3417L21.9019 30.0703H19.239L15.8651 36.1222L15.1767 30.0703H12.4609L14.0117 39.1784Z" fill="#4C4C4C"/>
</g>
<defs>
<clipPath id="clip0_244_26137">
<rect width="54.5576" height="42" fill="white"/>
</clipPath>
</defs>
</svg>
