<svg width="84" height="42" viewBox="0 0 84 42" fill="none" xmlns="http://www.w3.org/2000/svg">
<path d="M83.9479 13.6664C85.0922 20.2498 67.2403 28.8714 44.0702 32.9227C20.9029 36.9741 1.19427 34.9183 0.05182 28.3322C-1.08971 21.7479 16.7668 13.1291 39.9341 9.07866C63.1024 5.02544 82.8073 7.08124 83.9479 13.6664Z" fill="#034EA2"/>
<path d="M62.1423 23.4398L62.0233 16.5942H64.1735V25.2223H61.082L58.9365 18.1414H58.8903L59.0094 25.2223H56.873V16.5942H60.0983L62.0943 23.4398H62.1423Z" fill="white"/>
<path d="M23.0578 17.4021L21.8683 25.3131H19.5234L21.1338 16.5942H24.9967L26.5996 25.3131H24.264L23.1067 17.4021H23.0578Z" fill="white"/>
<path d="M32.0611 25.3131L30.6086 17.4744H30.5616L30.5071 25.3131H28.332L28.524 16.5942H32.0676L33.1399 23.2591H33.1861L34.2593 16.5942H37.8011L37.9893 25.3131H35.8188L35.7616 17.4744H35.7164L34.2648 25.3131H32.0611Z" fill="white"/>
<path d="M15.8667 22.8533C15.9516 23.0645 15.9258 23.3359 15.8861 23.4999C15.8132 23.7899 15.6175 24.0854 15.0399 24.0854C14.4954 24.0854 14.165 23.7723 14.165 23.2933V22.4493H11.8358L11.834 23.1247C11.834 25.0684 13.3585 25.6548 14.9919 25.6548C16.5625 25.6548 17.8563 25.1156 18.0621 23.663C18.1673 22.9098 18.0888 22.4169 18.0529 22.2307C17.6865 20.4056 14.3902 19.8608 14.1447 18.8399C14.1032 18.6648 14.1152 18.4795 14.1355 18.3803C14.1955 18.1024 14.3856 17.7958 14.9291 17.7958C15.4367 17.7958 15.7366 18.1107 15.7366 18.5869C15.7366 18.7472 15.7366 19.1252 15.7366 19.1252H17.9024V18.5128C17.9024 16.6136 16.2044 16.3171 14.9743 16.3171C13.4295 16.3171 12.1671 16.8295 11.9364 18.2488C11.8737 18.6407 11.8644 18.9899 11.9558 19.4272C12.3351 21.2088 15.4201 21.7248 15.8667 22.8533Z" fill="white"/>
<path d="M44.1053 22.8374C44.1911 23.0468 44.1634 23.3108 44.1247 23.4748C44.0536 23.7639 43.8598 24.0548 43.2858 24.0548C42.7487 24.0548 42.4211 23.7416 42.4211 23.2738L42.4193 22.4372H40.1141L40.1113 23.1033C40.1113 25.0276 41.622 25.6084 43.2388 25.6084C44.7928 25.6084 46.0746 25.0767 46.2767 23.6369C46.3819 22.8893 46.3071 22.4029 46.2693 22.2204C45.9048 20.412 42.6417 19.8728 42.399 18.862C42.3575 18.6878 42.3695 18.5044 42.3907 18.4108C42.4525 18.131 42.6389 17.8318 43.1769 17.8318C43.6799 17.8318 43.9733 18.1394 43.9733 18.6119C43.9733 18.7703 43.9733 19.1446 43.9733 19.1446H46.1226V18.5387C46.1226 16.6598 44.4384 16.3652 43.2203 16.3652C41.693 16.3652 40.4408 16.8711 40.2147 18.2802C40.1519 18.6665 40.1455 19.0093 40.235 19.4448C40.6087 21.2078 43.6633 21.7201 44.1053 22.8374Z" fill="white"/>
<path d="M51.4002 24.0087C52.0028 24.0087 52.1911 23.5899 52.2326 23.3759C52.2502 23.2814 52.2548 23.1554 52.2529 23.0424V16.5906H54.4492V22.845C54.4538 23.0053 54.4382 23.3351 54.4308 23.4176C54.2767 25.0454 52.9949 25.5734 51.3993 25.5734C49.8019 25.5734 48.5192 25.0454 48.3669 23.4176C48.3596 23.3351 48.3439 23.0053 48.3485 22.845V16.5906H50.5429V23.0424C50.5429 23.1554 50.5466 23.2823 50.5633 23.3759C50.6103 23.5899 50.793 24.0087 51.4002 24.0087Z" fill="white"/>
<path d="M69.5171 23.9169C70.1464 23.9169 70.366 23.5176 70.4066 23.2851C70.4223 23.185 70.4269 23.0637 70.426 22.9534V21.6879H69.5346V20.4149H72.614V22.7551C72.6122 22.9182 72.6085 23.0386 72.5827 23.3295C72.4378 24.9156 71.0674 25.4817 69.5281 25.4817C67.9861 25.4817 66.6176 24.9156 66.4708 23.3295C66.4459 23.0386 66.4422 22.9182 66.4395 22.7551L66.4413 19.0836C66.4413 18.9289 66.4607 18.6547 66.4773 18.5092C66.6702 16.8796 67.9861 16.3552 69.5281 16.3552C71.0683 16.3552 72.4165 16.8768 72.5762 18.5092C72.6048 18.7872 72.5956 19.0836 72.5956 19.0836V19.3745H70.4057V18.8863C70.4076 18.8872 70.403 18.6788 70.3771 18.5546C70.3402 18.3619 70.1732 17.9191 69.5115 17.9191C68.8785 17.9191 68.693 18.3378 68.6468 18.5546C68.6201 18.6695 68.6099 18.8251 68.6099 18.966V22.9534C68.6081 23.0637 68.6145 23.185 68.6321 23.2851C68.6699 23.5185 68.8886 23.9169 69.5171 23.9169Z" fill="white"/>
</svg>
