<svg width="90" height="42" viewBox="0 0 90 42" fill="none" xmlns="http://www.w3.org/2000/svg">
<path d="M32.0634 29.3902C28.8 29.3902 25.776 28.3845 23.76 26.5089C23.0391 25.8387 22.4647 25.017 22.0751 24.0987C21.6856 23.1804 21.4898 22.1867 21.501 21.1839C21.4988 20.1853 21.6986 19.1972 22.0877 18.2833C22.4767 17.3694 23.0464 16.5499 23.76 15.8776C25.632 14.1175 28.944 13 32.0634 13C35.514 13 38.277 13.8996 40.3884 15.8813C41.0992 16.5534 41.6651 17.3731 42.049 18.2868C42.433 19.2005 42.6265 20.1877 42.6168 21.1839C42.612 22.1812 42.4121 23.1672 42.0291 24.0823C41.6461 24.9975 41.088 25.8229 40.3884 26.5089C38.421 28.3957 35.3322 29.3902 32.0634 29.3902V27.2334C33.7932 27.2334 35.3988 26.6151 36.5202 25.4603C37.6416 24.3055 38.151 22.9049 38.151 21.1765C38.151 19.5263 37.5912 17.9841 36.5202 16.8927C35.4132 15.7659 33.7698 15.1307 32.0634 15.1307C30.357 15.1307 28.7064 15.7603 27.5994 16.8927C26.532 17.986 25.9794 19.5337 25.9794 21.1765C25.9634 21.9658 26.0983 22.7505 26.3763 23.4857C26.6543 24.2208 27.07 24.8919 27.5994 25.4603C28.7064 26.602 30.3462 27.2334 32.0634 27.2334V29.3902ZM8.23501 13C6.49081 13 4.50901 13.339 2.83501 14.1175C1.27261 14.8402 1.10915e-05 16.0005 1.10915e-05 17.9245C-0.00233626 18.9321 0.367983 19.9024 1.03501 20.6364C1.48681 21.0685 2.21581 21.8023 4.12021 22.2344C4.97161 22.4207 6.79141 22.7205 8.60401 22.918C10.4166 23.1154 12.1734 23.2905 12.8934 23.4898C13.4658 23.6406 14.4288 23.8455 14.4288 24.963C14.4288 26.0805 13.4154 26.4158 13.239 26.4884C13.0626 26.5611 11.8458 27.1384 9.66061 27.1384C8.21278 27.0969 6.77811 26.8416 5.40001 26.3804C4.58461 26.0787 3.72961 25.682 2.93221 24.6743C2.61041 24.1998 2.43188 23.6372 2.41921 23.0576H0.439211V28.7942H2.63881V28.0176C2.63846 27.96 2.65296 27.9033 2.68082 27.8534C2.70867 27.8035 2.74887 27.7622 2.79728 27.7338C2.84569 27.7053 2.90055 27.6907 2.95623 27.6915C3.0119 27.6923 3.06636 27.7084 3.11401 27.7382C4.15031 28.2048 5.22825 28.5653 6.33241 28.8147C7.48801 29.0643 8.23501 29.245 9.67141 29.245C11.1871 29.2748 12.6977 29.0541 14.1462 28.5912C15.1081 28.3184 16.0105 27.8575 16.8048 27.2334C17.2516 26.8784 17.6127 26.4209 17.8597 25.897C18.1067 25.3732 18.233 24.7972 18.2286 24.2143C18.2361 23.1069 17.8231 22.0408 17.0784 21.2454C16.6643 20.8296 16.1846 20.4901 15.66 20.2415C15.096 19.9778 14.5105 19.7665 13.9104 19.6101C12.7692 19.3214 10.206 18.9601 8.98021 18.8334C7.69501 18.6956 5.46481 18.5038 4.57381 18.2188C4.30381 18.1313 3.75301 17.8612 3.75301 17.2C3.75301 16.7288 4.00501 16.3302 4.50181 16.008C5.29201 15.4958 6.88681 15.1773 8.55001 15.1773C10.1599 15.1572 11.7566 15.4799 13.2408 16.1253C13.6396 16.3051 14.0146 16.5367 14.3568 16.8145C14.9147 17.3075 15.301 17.9761 15.4566 18.718H17.2332V13.7245H15.2532V14.3038C15.2532 14.49 15.0732 14.7359 14.7132 14.5329C13.8204 14.0523 11.3112 13.013 8.23501 13ZM51.7032 13.9164L61.38 22.9515L61.281 16.8685C61.2702 16.0694 61.1298 15.7361 60.2946 15.7361H58.4766V13.9164H66.7566V15.7361H64.98C64.1304 15.7361 64.08 16.0192 64.0656 16.8685L64.215 28.4925H61.38L50.2326 18.2002V25.5031C50.2416 26.2984 50.2776 26.6728 51.0678 26.6728H53.0478V28.4925H44.9316V26.6728H46.8324C47.5416 26.6728 47.5128 25.9725 47.5128 25.4622V16.9374C47.5128 16.3786 47.4372 15.7379 46.3248 15.7379H44.784V13.9164H51.7032ZM76.203 26.6691C76.3667 26.6691 76.5302 26.6585 76.6926 26.6374C76.777 26.6112 76.8548 26.5663 76.9207 26.5059C76.9866 26.4454 77.039 26.3708 77.0742 26.2873C77.0991 26.1579 77.1117 26.0262 77.112 25.8943V23.0167C77.112 22.9198 77.112 22.918 76.9932 22.7652C76.8744 22.6125 71.9244 16.8051 71.6994 16.5444C71.4186 16.2278 70.9254 15.7379 70.1748 15.7379H68.4558V13.9164H78.1578V15.7342H76.9878C76.7178 15.7342 76.5378 16.0005 76.7682 16.2929C76.7682 16.2929 80.0334 20.3346 80.064 20.3775C80.0946 20.4203 80.1216 20.4296 80.163 20.3905C80.2044 20.3514 83.5092 16.3302 83.5344 16.2929C83.5735 16.2399 83.597 16.1764 83.6022 16.1099C83.6074 16.0434 83.594 15.9768 83.5637 15.9179C83.5333 15.8591 83.4873 15.8105 83.4311 15.7779C83.3748 15.7454 83.3107 15.7302 83.2464 15.7342H82.0458V13.9164H90V15.7379H88.2234C87.579 15.7379 87.3234 15.8608 86.832 16.4271L81.477 22.7485C81.4246 22.8267 81.4015 22.9221 81.4122 23.0167V25.8924C81.4131 26.0244 81.4264 26.156 81.4518 26.2854C81.4864 26.369 81.5384 26.4437 81.604 26.5042C81.6697 26.5648 81.7473 26.6096 81.8316 26.6356C81.9927 26.6576 82.1551 26.6682 82.3176 26.6672H84.1338V28.4888H74.4822V26.6672L76.203 26.6691Z" fill="#191919"/>
</svg>
