<svg width="100" height="42" viewBox="0 0 100 42" fill="none" xmlns="http://www.w3.org/2000/svg">
<path d="M32.7031 15.4447C32.702 15.1743 32.698 14.904 32.6911 14.6338C32.6748 14.0451 32.6406 13.451 32.5358 12.8688C32.4359 12.2848 32.2494 11.719 31.9824 11.1901C31.4416 10.1275 30.5781 9.26355 29.5157 8.72231C28.9869 8.45563 28.4213 8.2693 27.8375 8.16944C27.2543 8.06463 26.6601 8.02987 26.0714 8.01412C25.8004 8.00652 25.5305 8.00326 25.26 8.00163C24.9391 8 24.6181 8 24.2966 8H14.2343C13.9128 8 13.5923 8 13.2714 8.00163C13.0009 8.0038 12.7305 8.00706 12.46 8.01412C12.3128 8.01792 12.1651 8.02335 12.0174 8.03041C11.5748 8.05159 11.1311 8.0907 10.6939 8.16944C10.258 8.24529 9.83151 8.36802 9.42196 8.53549C8.73579 8.81952 8.11225 9.23584 7.58686 9.76069C7.16783 10.1795 6.8174 10.6617 6.54848 11.1896C6.27476 11.7272 6.10152 12.2768 5.99562 12.8682C5.8908 13.451 5.85604 14.0451 5.84029 14.6333C5.83269 14.9048 5.82943 15.1747 5.8278 15.4447C5.82617 15.7662 5.82617 16.0871 5.82617 16.4081V26.4704C5.82617 26.7919 5.82617 27.1129 5.8278 27.4339C5.82997 27.7043 5.83323 27.9748 5.84029 28.2447C5.85658 28.834 5.8908 29.4281 5.99562 30.0097C6.09531 30.594 6.28165 31.1602 6.54848 31.6895C7.08935 32.7524 7.95336 33.6164 9.01627 34.1573C9.55339 34.4305 10.103 34.6037 10.6944 34.7102C11.2766 34.815 11.8713 34.8497 12.46 34.8655C12.7305 34.8725 13.0009 34.8758 13.2714 34.8774C13.5918 34.8796 13.9128 34.8791 14.2343 34.8791H24.2966C24.617 34.8791 24.9385 34.8796 25.2595 34.8774C25.53 34.8758 25.7999 34.8725 26.0703 34.8655C26.6596 34.8492 27.2543 34.815 27.8365 34.7102C28.4202 34.6103 28.9858 34.424 29.5146 34.1573C30.5772 33.6162 31.441 32.7523 31.9818 31.6895C32.2556 31.1519 32.4288 30.6017 32.5353 30.0108C32.6401 29.4286 32.6748 28.8345 32.6906 28.2452C32.6976 27.9753 32.7009 27.7049 32.7025 27.4344C32.7047 27.1134 32.7042 26.7925 32.7042 26.471V16.4081C32.7042 16.0871 32.7047 15.7662 32.7031 15.4447Z" fill="#F05138"/>
<path d="M27.1256 24.5913L27.124 24.5897C27.1533 24.4881 27.1837 24.3876 27.2103 24.2839C28.3258 19.8393 25.6028 14.5844 20.9958 11.8179C23.015 14.555 23.9073 17.87 23.1138 20.7691C23.0432 21.0281 22.9585 21.2763 22.8646 21.5174C22.7333 21.4329 22.5989 21.3534 22.4616 21.279C22.4616 21.279 17.8779 18.4495 12.9108 13.4439C12.7805 13.3125 15.5595 17.416 18.7137 20.7484C17.2278 19.9148 13.0862 16.9012 10.4648 14.5018C10.7868 15.0395 11.1702 15.5565 11.5911 16.0545C13.7803 18.8308 16.6359 22.2566 20.0562 24.8873C17.6531 26.358 14.2571 26.472 10.8759 24.8889C10.0481 24.5001 9.26074 24.0304 8.52539 23.4867C10.0373 25.888 12.2397 27.7763 14.8437 28.904C18.0436 30.2791 21.225 30.1857 23.5945 28.9268L23.5928 28.9295C23.6037 28.9224 23.6173 28.9154 23.6287 28.9078C23.7259 28.8562 23.8226 28.8024 23.9165 28.7465C25.0554 28.1556 27.3043 27.556 28.511 29.9043C28.807 30.4795 29.4354 27.4333 27.1262 24.5919L27.1256 24.5913Z" fill="white"/>
<path d="M42.9057 25.4433C43.1159 27.3078 44.8945 28.5303 47.3644 28.5303C49.7111 28.5303 51.4034 27.3083 51.4034 25.616C51.4034 24.1589 50.378 23.2694 48.0189 22.6768L45.7341 22.0957C42.449 21.2811 40.9669 19.7985 40.9669 17.3535C40.9669 14.3399 43.5976 12.2528 47.34 12.2528C50.9706 12.2528 53.5519 14.3524 53.6387 17.3785H51.2301C51.045 15.5255 49.5379 14.3893 47.2781 14.3893C45.0422 14.3893 43.4863 15.5379 43.4863 17.2172C43.4863 18.526 44.4497 19.3048 46.8208 19.9098L48.7233 20.404C52.4038 21.3055 53.9103 22.7382 53.9103 25.3195C53.9103 28.6052 51.304 30.6673 47.1543 30.6673C43.3011 30.6673 40.6703 28.6171 40.4727 25.4428L42.9057 25.4433ZM69.2085 30.3708H66.788L63.9596 20.5154H63.9107L61.0943 30.3708H58.6743L55.0926 17.4643H57.4387L59.9337 27.8264H59.9831L62.799 17.4643H65.0718L67.9122 27.8264H67.9616L70.4566 17.4643H72.7783L69.2085 30.3708ZM74.3407 13.9939C74.3407 13.2162 74.9837 12.5863 75.7614 12.5863C76.5522 12.5863 77.1941 13.2162 77.1941 13.9939C77.1941 14.7722 76.5522 15.4141 75.7614 15.4141C75.3854 15.412 75.0255 15.2617 74.7596 14.9958C74.4937 14.7299 74.3429 14.3699 74.3407 13.9939ZM74.5884 17.4643H76.947V30.3708H74.5884V17.4643ZM92.3517 19.3667V17.4643H89.8573V14.3768H87.5101V17.4643H83.0014V16.3281C83.0133 15.1795 83.4576 14.6978 84.5204 14.6978C84.8658 14.6978 85.2117 14.7353 85.4958 14.7847V12.9311C85.0832 12.8666 84.6664 12.8336 84.2488 12.8323C81.7289 12.8323 80.6666 13.8826 80.6666 16.2907V17.4637H78.8636V19.3662H80.6666V30.3702H83.0133V19.3667H87.5106V26.9863C87.5106 29.4812 88.461 30.4441 90.9315 30.4441C91.4627 30.4441 92.0677 30.4072 92.3398 30.3458V28.4189C92.0445 28.4554 91.7476 28.4761 91.4502 28.4808C90.351 28.4808 89.8573 27.9622 89.8573 26.8011V19.3667H92.3517Z" fill="#191919"/>
</svg>
