<svg width="92" height="42" viewBox="0 0 92 42" fill="none" xmlns="http://www.w3.org/2000/svg">
<path d="M34 35.9183H39.5335V26.7937L45.883 35.9183H51V17.9183H45.4485V26.4724L39.4243 17.9183H34V35.9183Z" fill="#5B2D87"/>
<path d="M52 27.604C52 32.9745 55.6943 36.9358 61.5542 36.9183C67.0866 36.9008 71 33.2203 71 27.4981C71 27.1638 70.9819 26.7934 70.9447 26.4417H62.1007V30.5438H65.3434C64.7788 31.5653 63.3776 32.0055 61.7586 32.0055C59.2102 32.0055 57.6273 30.0861 57.6273 27.4096C57.6273 24.5921 59.5738 22.8846 61.7766 22.8846C63.5831 22.8846 64.7246 23.6767 65.2158 24.8565H70.7629C69.9805 20.1906 65.7589 17.9183 61.6818 17.9183C56.0951 17.9183 52 21.9866 52 27.604Z" fill="#5B2D87"/>
<path d="M72 35.9183H86V31.1688H77.6609V29.2577H85.2987V24.579H77.6609V22.6679H86V17.9183H72V35.9183Z" fill="#5B2D87"/>
<path d="M26 17.9183V35.9183H31V17.9183H26Z" fill="#5B2D87"/>
<path d="M5 35.9183L20.7889 30.1233L20.8071 23.6808L5 17.9183H16.6164C20.6418 17.9183 23.5826 19.0382 23.5826 22.5576C23.5826 24.2956 22.7 25.8663 20.8071 26.7592C22.7365 27.3023 24 28.823 24 30.8565C24 34.516 20.9496 35.9162 17.2915 35.9162L5 35.9183Z" fill="#5B2D87"/>
<path d="M21 23.6782L5 17.9183V23.8369L14.3955 26.8656L5 29.9129V35.9183L20.9815 30.1226L21 23.6782Z" fill="#E50076"/>
<path d="M14 4.91833H5V7.51744H7.67119V13.9183H11.3871V7.51744H14V4.91833Z" fill="#191919"/>
<path d="M14 13.9183H17.5019L19.435 8.55179L21.4254 13.9183H25L21.4254 4.91833H17.5019L14 13.9183Z" fill="#191919"/>
<path d="M24 7.51744H26.6558V13.9183H30.3871V7.51744H33V4.91833H24V7.51744Z" fill="#191919"/>
<path d="M32 13.9183H35.8046L37.9279 8.55179L40.0849 13.9183H44L40.0849 4.91833H35.8046L32 13.9183Z" fill="#191919"/>
<path d="M48 13.9183H51.2687V11.8229H52.5994C55.3833 11.8229 56.7254 10.2432 56.7254 8.24516C56.73 6.18892 55.1105 4.91833 52.7208 4.91833H48V13.9183ZM51.2687 9.4321V7.47645H52.3277C53.0842 7.47645 53.4624 7.88092 53.4624 8.41245C53.4624 9.05516 53.0234 9.43316 52.2521 9.43316L51.2687 9.4321ZM57.9254 13.9183H65.0806V11.32H61.3591V4.91833H57.9208V13.9183H57.9254ZM66.1098 13.9183H69.7556L71.783 8.55116L73.8403 13.9183H77.5766L73.8403 4.91833H69.7556L66.1098 13.9183ZM76.1119 4.91833L79.619 11.4597V13.9183H83.1594V11.4312L87 4.91833H83.5078L81.5594 8.35634L79.7554 4.91833H76.1119Z" fill="#E50076"/>
</svg>
