<svg width="100" height="42" viewBox="0 0 100 42" fill="none" xmlns="http://www.w3.org/2000/svg">
<path d="M74.8652 27.0074C74.8652 26.9761 75.6664 24.7629 77.9274 18.5481L79.2016 15.046H84.1377L84.712 16.5671C85.7657 19.3578 88.6091 26.9749 88.6091 27.0067C88.6091 27.024 87.6036 27.038 86.3747 27.038H84.1404L83.1199 24.0843C81.6712 19.8912 81.6914 19.9463 81.6309 20.0107C81.6007 20.043 81.0782 21.5337 80.4698 23.3237C79.8611 25.1137 79.3273 26.6816 79.2831 26.8081L79.2028 27.038H77.034C75.8412 27.038 74.8652 27.0242 74.8652 27.0074Z" fill="#E10091"/>
<path d="M3.38418 22.7577V18.4773H0V15.0106H11.3266V18.4773H8.01153V27.038H3.38418V22.7577ZM10.453 26.5864C10.541 26.338 11.5273 23.6323 12.6447 20.5737L14.6763 15.0128L17.1355 15.0117L19.5947 15.0106L20.9608 18.6719C21.7121 20.6856 22.711 23.3636 23.1807 24.6229C23.6503 25.8822 24.0346 26.9413 24.0346 26.9763C24.0346 27.0132 23.0974 27.0322 21.8132 27.0214L19.5917 27.0026L18.3958 23.5713C17.738 21.6841 17.1752 20.0818 17.145 20.0106C17.1058 19.9182 16.745 20.904 15.8832 23.4589L14.6763 27.0366L12.4846 27.0373L10.2929 27.038L10.453 26.5864ZM26.4519 22.7577V18.4773H23.1367V15.0106H34.3943V18.4773H31.1483V27.038H26.4519V22.7577ZM33.3583 27.0074C33.3583 26.9761 34.1595 24.7629 36.4205 18.5481L37.6948 15.046H42.6308L43.2051 16.5671C44.2587 19.3577 47.1023 26.9749 47.1023 27.0067C47.1023 27.024 46.0968 27.038 44.8678 27.038H42.6335L41.613 24.0842C40.1643 19.8912 40.1845 19.9463 40.124 20.0107C40.0938 20.0429 39.5713 21.5337 38.9629 23.3237C38.3542 25.1136 37.8204 26.6816 37.7762 26.8081L37.6959 27.038H35.5272C34.3343 27.038 33.3583 27.0242 33.3583 27.0074Z" fill="#191919"/>
<path d="M53.041 15V27.0381H56.9086V24.2226L58.3072 24.1896C59.8918 24.1522 60.2548 24.0816 61.1819 23.629C62.2412 23.1119 63.0165 22.1056 63.3359 20.8334C63.5105 20.1386 63.526 18.995 63.3702 18.3069C63.0249 16.7812 61.9177 15.6811 60.2544 15.2106C59.7323 15.0628 59.5451 15.0539 56.3733 15.0277L53.041 15ZM56.9086 18.4067L57.6856 18.407C58.6353 18.4075 58.9374 18.4872 59.2661 18.824C59.8354 19.4072 59.6624 20.4542 58.928 20.8695C58.6855 21.0066 58.4999 21.0397 57.7739 21.0749L56.9087 21.1166V19.7618L56.9086 18.4067ZM64.9892 21.0244V15.0107H69.0641V23.5714H73.5533V27.0381H64.9892V21.0244ZM91.0957 25.3578V23.6775L88.9931 19.3441L86.8906 15.0107L89.0796 15.0141L91.2686 15.0175L92.3339 17.278C92.9197 18.5215 93.4216 19.5387 93.4492 19.5387C93.4767 19.5387 94.0177 18.5199 94.6516 17.2747L95.8039 15.0107H99.9981L99.7365 15.4883C99.5666 15.7993 99.3992 16.1118 99.2343 16.4257C99.102 16.6786 98.1802 18.4153 97.1858 20.2851L95.3778 23.6846V27.0381H91.0958L91.0957 25.3578Z" fill="#E10091"/>
</svg>
