<svg width="71" height="42" viewBox="0 0 71 42" fill="none" xmlns="http://www.w3.org/2000/svg">
<g clip-path="url(#clip0_244_26230)">
<mask id="mask0_244_26230" style="mask-type:luminance" maskUnits="userSpaceOnUse" x="0" y="0" width="71" height="42">
<path d="M0.0351562 41.9648H70.388V0.0345993H0.0351562V41.9648Z" fill="white"/>
</mask>
<g mask="url(#mask0_244_26230)">
<path d="M70.388 41.9656H0.0351562V10.4346C0.0351562 4.71724 4.71609 0.0352859 10.4355 0.0352859H70.388V41.9656Z" fill="#ED1C24"/>
<path d="M10.4355 18.0184H15.9936V27.9746H20.9646V18.0184H26.5166V13.9992H10.4355V18.0184Z" fill="white"/>
<path d="M36.2595 25.0966C35.1046 25.0966 34.2377 24.7627 33.5014 24.0775C32.7815 23.4066 32.2648 22.3824 32.2648 20.9875V20.7782C32.2648 19.3905 32.7815 18.3499 33.5014 17.6841C34.2377 16.9938 35.1107 16.6752 36.2595 16.6752C38.9737 16.6752 39.5527 18.2907 39.7263 19.3435H44.1377C44.0294 17.2175 43.0165 15.7235 41.5848 14.7289C40.1603 13.7384 38.505 13.233 36.3075 13.233C33.6066 13.233 31.6879 13.8344 30.1102 15.1711C28.5213 16.5353 27.6758 18.6828 27.6758 20.8293V20.9385C27.6758 23.2851 28.412 25.0446 30.0408 26.5252C31.5643 27.9099 33.7863 28.543 36.2554 28.5348C38.4438 28.5348 40.3227 28.0212 41.6226 27.044C43.0563 25.9605 44.0356 24.44 44.153 22.4345H39.7519C39.6303 23.277 39.0993 25.0966 36.2595 25.0966Z" fill="white"/>
<path d="M51.5986 24.1425V13.9994H46.8125V27.9697H59.4492V24.1425H51.5986Z" fill="white"/>
</g>
</g>
<defs>
<clipPath id="clip0_244_26230">
<rect width="70.4233" height="42" fill="white"/>
</clipPath>
</defs>
</svg>
