<svg width="59" height="42" viewBox="0 0 59 42" fill="none" xmlns="http://www.w3.org/2000/svg">
<path fill-rule="evenodd" clip-rule="evenodd" d="M6.28608 36.8521L10.8698 31.6137H44.7889L40.1678 36.8521H6.28608ZM18.4843 21.8102L22.2329 4.04862L34.2538 4.05106L5.18159 36.8521H2.78711V2.802H14.786L13.9567 12.1939L21.4777 2.83942H35.1726L32.1043 13.9899C31.4686 16.326 31.1924 18.8303 33.4514 18.7794C36.5635 18.4992 36.9571 16.0668 37.3054 14.5886L40.1117 2.802H52.2351L48.8511 17.0992C47.2988 22.4615 44.9 24.7369 41.4427 27.2063C38.5879 29.08 35.0537 29.9347 31.0711 30.1168C27.712 29.7585 24.3162 29.7128 21.2286 27.0476C19.8937 25.687 18.9387 23.9652 18.4843 21.8102Z" fill="#F1211D"/>
<path fill-rule="evenodd" clip-rule="evenodd" d="M21.0329 5.40265V6.58798H33.4164V5.40265H21.0329ZM18.8104 7.92148V9.10682H31.1939V7.92148H18.8104ZM18.8104 10.5885V11.7738H31.1939V10.5885H18.8104ZM16.5879 13.2555V14.4408H28.9714V13.2555H16.5879ZM16.5879 16.0706V17.256H28.9714V16.0706H16.5879ZM16.5879 18.5895V19.7748H28.9714V18.5895H16.5879Z" fill="#F1211D"/>
</svg>
