<svg width="88" height="42" viewBox="0 0 88 42" fill="none" xmlns="http://www.w3.org/2000/svg">
<g clip-path="url(#clip0_244_26220)">
<path fill-rule="evenodd" clip-rule="evenodd" d="M51.0696 15.9856C51.0631 15.9915 50.9031 16.0031 50.7141 16.0112C50.525 16.0193 50.3627 16.0304 50.3533 16.0359C50.3439 16.0415 50.2396 16.0535 50.1212 16.0628C50.0031 16.072 49.899 16.0842 49.8899 16.09C49.881 16.0957 49.7989 16.1072 49.708 16.1155C49.2436 16.158 48.5331 16.3229 48.1235 16.4831C48.0309 16.5194 47.9357 16.555 47.9121 16.5624C47.8135 16.5931 47.8046 16.6672 47.7883 17.592C47.7707 18.5837 47.7671 18.5599 47.9352 18.581C47.9905 18.5879 48.0944 18.5718 48.1957 18.5405C48.5685 18.4253 48.7181 18.3829 49.1103 18.2815C49.6099 18.1524 50.1621 18.0312 50.4685 17.9834C50.9948 17.9014 52.1918 17.9171 52.4369 18.0092C52.4852 18.0274 52.605 18.0609 52.7031 18.0836C52.908 18.1312 53.0706 18.2098 53.2491 18.3477C53.3794 18.4486 53.4595 18.5978 53.5247 18.8608C53.567 19.0322 53.5702 19.0541 53.587 19.3145L53.6029 19.5586L53.3886 19.5406C52.5391 19.4691 51.5734 19.4403 51.1537 19.4739L50.4805 19.528C49.8013 19.5826 48.9595 19.7624 48.5391 19.9427C47.9864 20.1797 47.4544 20.6152 47.3022 20.9551C46.9893 21.6538 46.9236 22.5478 47.1235 23.3819C47.2 23.7005 47.2649 23.8805 47.371 24.0667C47.4078 24.1317 47.4381 24.1955 47.4381 24.2085C47.4381 24.2795 48.0018 24.7898 48.2801 24.9706C48.3527 25.0178 48.4158 25.0649 48.4201 25.0753C48.4244 25.0857 48.4424 25.0943 48.46 25.0943C48.4776 25.0943 48.5658 25.1283 48.6563 25.17C48.7469 25.2116 48.9076 25.2716 49.0134 25.3033C49.1192 25.335 49.2544 25.3776 49.3141 25.3981C49.3735 25.4186 49.6007 25.4666 49.8191 25.5048C50.2148 25.5741 50.2189 25.5743 51.3223 25.5745C52.4369 25.5747 52.7315 25.5583 53.1262 25.4741C53.6762 25.3567 53.9278 25.2865 54.1363 25.1923C54.5733 24.9947 54.6842 24.9272 54.9038 24.7251C55.0435 24.5966 55.2352 24.3943 55.2973 24.3096C55.4125 24.1526 55.6621 23.6226 55.7112 23.4312C55.7389 23.3228 55.7713 23.2157 55.7833 23.1933C55.8329 23.1013 55.9178 22.4809 55.9431 22.0268C55.9621 21.6861 55.9601 20.395 55.9399 20.0312C55.9159 19.5919 55.8603 19.1567 55.7951 18.8978C55.6758 18.4233 55.6087 18.2299 55.4538 17.9133C55.0637 17.116 54.2549 16.4593 53.3186 16.1795C53.1637 16.1332 52.8505 16.0729 52.585 16.038C52.5254 16.0302 52.4496 16.0186 52.4167 16.0123C52.3351 15.9966 51.0842 15.9718 51.0696 15.9856ZM61.9289 16.1292C61.5785 16.1474 61.4936 16.1574 61.0991 16.2268C60.7389 16.2902 60.5118 16.3544 60.2588 16.4644C60.0796 16.5423 60.0007 16.5851 59.7629 16.7344C59.7371 16.7505 59.6496 16.8043 59.5683 16.854C59.3956 16.9598 59.074 17.2917 58.8638 17.5816C58.6976 17.8109 58.4054 18.3991 58.4054 18.5046C58.4054 18.5257 58.39 18.5735 58.3713 18.6108C58.3015 18.7485 58.1651 19.4004 58.1154 19.8327C58.0704 20.2229 58.0656 20.3691 58.0752 21.0769C58.0894 22.1224 58.1372 22.4376 58.4109 23.2911C58.5134 23.6114 58.6462 23.8568 58.9023 24.2007C59.075 24.4324 59.4223 24.7835 59.5599 24.8654C59.6193 24.9008 59.6734 24.9363 59.6801 24.9443C59.7025 24.9713 59.7879 25.0196 60.0048 25.1279C60.2374 25.2442 60.3711 25.2934 60.647 25.3643C60.7434 25.3891 60.882 25.4262 60.9548 25.4468C61.3606 25.5614 61.9708 25.6056 63.0473 25.5984C63.7578 25.5936 63.9203 25.5854 64.1777 25.5416C64.7039 25.4519 65.2605 25.2847 65.5727 25.1224C65.8086 24.9997 65.9209 24.9347 65.9455 24.9064C65.9587 24.8911 66.0614 24.8019 66.1739 24.708C66.4286 24.4956 66.5347 24.3925 66.5347 24.3576C66.5347 24.3427 66.5438 24.3305 66.5552 24.3305C66.5756 24.3305 66.8091 23.9886 66.8106 23.9567C66.8108 23.9477 66.8329 23.9144 66.8596 23.8828C66.8863 23.8513 66.9301 23.7866 66.9573 23.7392C67.0186 23.6317 67.1841 23.2148 67.1841 23.1678C67.1841 23.1487 67.1937 23.1225 67.2055 23.1097C67.2685 23.041 67.4205 22.2104 67.4749 21.6387C67.5011 21.3605 67.4939 20.0844 67.4653 19.945C67.4583 19.9111 67.4458 19.8113 67.4373 19.7232C67.3748 19.0657 67.179 18.369 66.951 17.9929C66.9205 17.9423 66.8955 17.8932 66.8955 17.8837C66.8955 17.8742 66.838 17.7881 66.768 17.6923C66.6978 17.5965 66.6085 17.4738 66.5698 17.4196C66.5309 17.3654 66.4354 17.26 66.3577 17.1855C66.2199 17.0537 65.9257 16.816 65.9002 16.816C65.8933 16.816 65.8389 16.7822 65.779 16.7409C65.6131 16.6261 65.2487 16.4568 64.9649 16.3625C64.7136 16.2791 64.3035 16.2016 63.8289 16.1479C63.5524 16.1166 62.3909 16.1052 61.9289 16.1292ZM72.929 16.1375C72.9241 16.1423 72.8337 16.1532 72.7279 16.1618C72.6221 16.1704 72.465 16.1877 72.3791 16.2004C72.293 16.213 72.1798 16.2295 72.1273 16.237C71.9046 16.269 71.4599 16.411 71.2608 16.5138C71.0472 16.624 70.6463 16.9214 70.525 17.0594C70.4036 17.1978 70.1465 17.697 70.0984 17.8877C70.0476 18.0895 69.9945 18.4333 69.9747 18.6862C69.9493 19.0179 69.9553 25.4037 69.9812 25.4303C70.0058 25.4552 72.1281 25.4581 72.1523 25.4333C72.1622 25.4232 72.1781 23.9819 72.1877 22.2304C72.1973 20.4788 72.2125 19.0069 72.2211 18.9594C72.256 18.7675 72.3385 18.5274 72.3955 18.4505C72.4746 18.3445 72.6521 18.2148 72.7883 18.1638C73.0656 18.0598 73.3744 18.0276 73.9785 18.0393C74.7123 18.0536 74.9074 18.0958 75.1369 18.2898C75.3552 18.4742 75.4199 18.6228 75.45 19.0087C75.462 19.1646 75.4745 20.6391 75.4777 22.2855C75.4808 23.932 75.4892 25.314 75.4967 25.3568C75.5092 25.4288 75.5185 25.4354 75.6222 25.4459C75.8088 25.4646 77.6651 25.4529 77.6846 25.4328C77.6947 25.4225 77.706 23.9978 77.7099 22.2669C77.7137 20.5359 77.7221 19.0578 77.7289 18.9824C77.7353 18.9069 77.7584 18.7794 77.7801 18.699C77.8017 18.6187 77.8251 18.5283 77.8318 18.4983C77.852 18.4077 78.0636 18.2111 78.1914 18.1642C78.5747 18.0233 79.5601 17.9887 80.1443 18.0957C80.4914 18.1593 80.7807 18.3637 80.8521 18.5963C80.9697 18.9787 80.9731 19.0665 80.9878 22.3389C80.9952 24.0283 81.0101 25.4194 81.0207 25.4303C81.052 25.4623 83.0581 25.4731 83.1372 25.4416L83.2046 25.4148L83.1938 22.1194C83.188 20.3069 83.1764 18.763 83.1683 18.6884C83.1 18.0594 83.0319 17.7961 82.8534 17.4686C82.6961 17.1801 82.4672 16.934 82.1774 16.7415C81.4416 16.2533 80.7985 16.1139 79.378 16.1344C78.9745 16.1403 78.6065 16.1514 78.5603 16.1591C78.5139 16.1668 78.422 16.1788 78.3559 16.1859C78.0687 16.2164 77.7086 16.2936 77.3931 16.3924C77.3529 16.4049 77.2067 16.4735 77.0684 16.5447C76.8349 16.6647 76.8034 16.6743 76.6362 16.6768C76.4674 16.6793 76.4404 16.6718 76.2153 16.5605C75.8435 16.3765 75.5837 16.2969 75.109 16.2214C74.5599 16.134 74.4389 16.1259 73.6986 16.1273C73.2801 16.128 72.9338 16.1326 72.929 16.1375ZM37.0232 16.2527C36.932 16.2719 36.8589 16.3396 36.7957 16.4635C36.7692 16.5151 36.7413 16.5628 36.7334 16.5696C36.7254 16.5764 36.6819 16.6373 36.6364 16.7051C36.591 16.7728 36.5323 16.8548 36.5063 16.8872C36.4801 16.9196 36.4154 16.9996 36.3625 17.0649C36.2232 17.2367 36.1735 17.3079 36.1097 17.4257C36.0785 17.4833 36.0441 17.5304 36.0332 17.5304C36.0224 17.5304 36.0138 17.5446 36.0138 17.562C36.0138 17.5793 35.9921 17.6095 35.9657 17.629C35.9392 17.6485 35.9176 17.6775 35.9176 17.6934C35.9176 17.7093 35.9012 17.7287 35.8815 17.7365C35.8615 17.7443 35.8454 17.7667 35.8454 17.7863C35.8454 17.8059 35.8372 17.8257 35.8274 17.8302C35.7903 17.847 35.3644 18.397 35.3644 18.4279C35.3644 18.4357 35.3454 18.4634 35.3223 18.4895C35.2992 18.5155 35.2769 18.5422 35.2554 18.5696C35.1039 18.7697 34.9776 18.9434 34.9093 19.0452C34.8124 19.1897 34.6609 19.3474 34.6501 19.3147C34.646 19.3023 34.5555 19.1701 34.4492 19.021C34.2272 18.7096 34.0695 18.4851 34.0175 18.4065C33.9976 18.3764 33.9369 18.2973 33.8828 18.2307C33.8287 18.164 33.7315 18.0263 33.6671 17.9247C33.6026 17.823 33.5379 17.7288 33.5233 17.7152C33.5086 17.7017 33.4112 17.5686 33.307 17.4196C33.2029 17.2705 33.0622 17.0765 32.9941 16.9884C32.9263 16.9003 32.8342 16.7728 32.7897 16.7051C32.7454 16.6373 32.6949 16.5672 32.6776 16.5492C32.6187 16.4878 32.4999 16.2986 32.5191 16.2968C32.5297 16.2959 32.5167 16.2856 32.4903 16.2739C32.4638 16.2623 31.857 16.252 31.142 16.251C30.1092 16.2496 29.8328 16.2559 29.7989 16.2814C29.7607 16.3099 29.7593 16.3258 29.7847 16.4228C29.8187 16.5522 29.8432 16.5896 30.1479 16.9761C30.2761 17.1387 30.4281 17.3346 30.4856 17.4113C30.5431 17.488 30.6768 17.6614 30.7826 17.7967C30.8885 17.9318 30.9967 18.0733 31.0231 18.1111C31.0496 18.1488 31.0881 18.1971 31.1085 18.2185C31.1819 18.2944 31.3926 18.5557 31.5196 18.7281C31.5903 18.8245 31.7384 19.0129 31.8486 19.147C32.0876 19.4381 32.0903 19.4413 32.1646 19.5507C32.1968 19.5982 32.2293 19.6425 32.2368 19.6493C32.244 19.6561 32.282 19.706 32.3212 19.7602C32.3601 19.8144 32.4034 19.871 32.4171 19.8861C32.4309 19.9011 32.4739 19.9548 32.5126 20.0053C32.5514 20.0557 32.6151 20.1321 32.6543 20.175C32.6937 20.2179 32.77 20.3139 32.8243 20.3884C32.8784 20.463 32.9285 20.5295 32.9355 20.5363C32.9424 20.543 33.0047 20.6188 33.0737 20.7046C33.1817 20.8386 33.1954 20.8667 33.1697 20.903C33.0256 21.1059 32.8441 21.3395 32.7531 21.4387C32.6928 21.5047 32.6252 21.5864 32.6028 21.6203C32.5807 21.6542 32.5446 21.7041 32.5227 21.7312C32.3794 21.9099 32.2618 22.0648 32.2618 22.0746C32.2618 22.081 32.2372 22.1121 32.2077 22.1437C32.1471 22.2079 31.9782 22.4163 31.9291 22.4872C31.9116 22.5125 31.8604 22.5745 31.8151 22.625C31.7699 22.6754 31.7327 22.7258 31.7327 22.7369C31.7327 22.7481 31.7192 22.7711 31.7026 22.788C31.686 22.805 31.6401 22.8615 31.6004 22.9137C31.4977 23.0486 31.3904 23.1787 31.3464 23.2218C31.3257 23.2421 31.2514 23.3363 31.1816 23.4312C31.0455 23.6159 30.9094 23.7864 30.8295 23.8715C30.8024 23.9004 30.773 23.9435 30.7641 23.9671C30.7552 23.9908 30.7369 24.0102 30.7232 24.0102C30.7095 24.0102 30.6985 24.0268 30.6985 24.0471C30.6985 24.0675 30.6898 24.0841 30.6794 24.0841C30.6691 24.0841 30.6412 24.1177 30.6176 24.1587C30.5941 24.1997 30.551 24.2594 30.5224 24.2915C30.4935 24.3236 30.4382 24.3908 30.3995 24.4409C30.3608 24.4909 30.3011 24.5639 30.2672 24.6031C30.2331 24.6423 30.1621 24.737 30.1092 24.8136C30.0563 24.8902 29.9885 24.9796 29.9589 25.0123C29.9291 25.0451 29.9048 25.0824 29.9048 25.0954C29.9048 25.1083 29.8961 25.1189 29.8858 25.1189C29.8504 25.1189 29.7845 25.2619 29.7845 25.3391C29.7845 25.396 29.7987 25.4219 29.8386 25.4383C29.8687 25.4506 30.4652 25.4585 31.1874 25.456C32.4482 25.4516 32.483 25.4502 32.517 25.4026C32.5362 25.3757 32.6019 25.2962 32.6632 25.2258C32.7243 25.1554 32.8077 25.0488 32.8486 24.9889C32.9181 24.8874 33.0971 24.6417 33.1659 24.5538C33.1825 24.5326 33.2488 24.4487 33.3138 24.3674C33.3785 24.2861 33.5057 24.1143 33.5964 23.9855C33.687 23.8568 33.7751 23.7404 33.7919 23.7269C33.8189 23.7052 33.8787 23.6295 34.0062 23.4558C34.1851 23.2124 34.3184 23.0349 34.3299 23.0247C34.3376 23.0179 34.4043 22.9237 34.4781 22.8153C34.627 22.5965 34.7657 22.4334 34.8028 22.4334C34.8163 22.4334 34.8632 22.4903 34.9072 22.5598C34.9512 22.6294 35.051 22.7687 35.1292 22.8695C35.2073 22.9702 35.3425 23.16 35.4296 23.2912C35.59 23.5328 35.6655 23.6376 35.7439 23.7269C35.8076 23.7999 35.9897 24.0551 35.9897 24.0718C35.9897 24.0797 36.0356 24.1495 36.0917 24.2268C36.1477 24.3042 36.216 24.401 36.2437 24.442C36.2711 24.483 36.311 24.5384 36.3324 24.5652C36.4308 24.6877 36.5359 24.8278 36.591 24.9095C36.6239 24.9585 36.6624 25.0118 36.6764 25.028C36.7305 25.0911 36.8556 25.2892 36.8556 25.3121C36.8556 25.3254 36.8887 25.3649 36.9294 25.4L37.0035 25.4638L38.2702 25.4635C38.967 25.4633 39.5606 25.4567 39.589 25.4489C39.6289 25.4379 39.6428 25.4118 39.6501 25.335C39.6556 25.2746 39.6472 25.2227 39.6284 25.2035C39.6113 25.186 39.5974 25.1659 39.5974 25.1588C39.5974 25.1517 39.5618 25.1093 39.5185 25.0646C39.4752 25.0199 39.424 24.9511 39.4043 24.9116C39.3848 24.8721 39.2982 24.7557 39.2118 24.6529C39.1255 24.5501 39.0228 24.4216 38.9834 24.3674C38.8321 24.1586 38.5521 23.8004 38.5341 23.7926C38.5235 23.788 38.5151 23.7704 38.5151 23.7533C38.5151 23.7362 38.4922 23.7011 38.4643 23.6752C38.4364 23.6494 38.3518 23.5451 38.2763 23.4435C38.0579 23.1501 37.9258 22.9766 37.7702 22.7783C37.6748 22.6562 37.5809 22.5331 37.4883 22.4087C37.4133 22.3071 37.345 22.2184 37.3368 22.2116C37.3183 22.1961 37.0441 21.8268 37.0119 21.7736C36.9987 21.7519 36.9645 21.7091 36.9361 21.6786C36.8695 21.6071 36.6631 21.3324 36.6631 21.3153C36.6631 21.3082 36.6386 21.2754 36.609 21.2426C36.4166 21.0305 36.2783 20.8272 36.2783 20.7562C36.2783 20.7283 36.3038 20.6957 36.3385 20.6796C36.3714 20.6642 36.3986 20.6422 36.3986 20.6307C36.3986 20.6192 36.4253 20.586 36.458 20.5569C36.4907 20.5278 36.5472 20.4585 36.5838 20.4031C36.6812 20.2548 36.801 20.0995 36.9467 19.9326C37.1006 19.7565 37.1119 19.7427 37.218 19.6C37.2632 19.539 37.3075 19.4836 37.3161 19.4768C37.3246 19.4701 37.3796 19.398 37.4381 19.3167C37.4965 19.2354 37.5869 19.1176 37.6389 19.0551C37.7438 18.9288 37.757 18.9121 37.9198 18.7007C37.9826 18.6194 38.0485 18.5363 38.0663 18.516C38.0838 18.4956 38.1567 18.4014 38.2279 18.3065C38.2991 18.2117 38.4153 18.062 38.4862 17.9739C38.5569 17.8858 38.632 17.7916 38.6529 17.7645C38.6736 17.7374 38.7352 17.6636 38.7893 17.6005C38.8434 17.5375 38.8987 17.4709 38.9119 17.4527C38.9252 17.4345 38.968 17.3752 39.0072 17.321C39.0873 17.2106 39.2787 16.9741 39.4625 16.7592C39.5899 16.6102 39.6659 16.4565 39.6681 16.3428C39.6693 16.2864 39.6575 16.2741 39.5914 16.2626C39.4788 16.2431 37.1122 16.2339 37.0232 16.2527ZM42.148 16.2962C42.1167 16.3561 42.1235 25.3989 42.1547 25.431C42.181 25.4578 44.3251 25.4578 44.3513 25.431C44.3752 25.4067 44.3713 16.3025 44.3477 16.2782C44.3388 16.2691 43.846 16.2583 43.2527 16.2543C42.1944 16.2471 42.1733 16.2479 42.148 16.2962ZM86.2829 16.2716C86.2278 16.2814 86.197 16.3024 86.1893 16.3355C86.1831 16.3626 86.1768 18.405 86.1751 20.8741C86.1727 25.0146 86.1756 25.3667 86.2122 25.4041C86.2471 25.44 86.3594 25.4463 87.1622 25.4578C87.6629 25.465 88.1457 25.4629 88.2349 25.4531L88.3972 25.4353V16.2807L88.2623 16.2645C88.0988 16.2448 86.3983 16.2509 86.2829 16.2716ZM63.341 18.0248C64.0329 18.0983 64.4882 18.2835 64.7814 18.6109C65.1337 19.0046 65.2302 19.3673 65.2602 20.4131C65.2982 21.7375 65.2184 22.4819 64.9981 22.8522C64.8583 23.087 64.5178 23.3844 64.2381 23.5161C63.8393 23.7036 63.5408 23.7515 62.7707 23.7515C62.1648 23.7515 61.9953 23.7324 61.5958 23.6191C61.2827 23.5302 60.9955 23.3631 60.7867 23.1482C60.6604 23.018 60.4971 22.7092 60.4351 22.4826C60.3271 22.0887 60.2571 21.5127 60.2578 21.0262C60.2598 19.9537 60.3502 19.3623 60.5787 18.9307C60.6823 18.7352 60.9293 18.4405 61.0421 18.3783C61.1725 18.3061 61.3647 18.2067 61.4359 18.1743C61.5138 18.1389 61.8914 18.048 62.0612 18.0238C62.2649 17.9949 63.0644 17.9955 63.341 18.0248ZM52.7053 21.3277C52.8573 21.3384 53.0088 21.3532 53.042 21.3606C53.0749 21.368 53.194 21.3807 53.3066 21.3889C53.4189 21.3971 53.5326 21.4074 53.5591 21.4117C53.5856 21.416 53.6154 21.4204 53.6257 21.4214C53.6488 21.4237 53.6262 22.1143 53.5916 22.4544C53.5646 22.7217 53.4833 23.0264 53.4044 23.1573C53.3015 23.3277 53.0071 23.539 52.82 23.5765C52.7899 23.5825 52.7166 23.6058 52.6572 23.6282C52.4547 23.7046 51.995 23.7358 51.1901 23.7279C50.7732 23.7238 50.3891 23.7131 50.3362 23.7042C50.0332 23.6531 49.7333 23.5567 49.5656 23.4564C49.449 23.3866 49.2619 23.1494 49.182 22.9701C49.0779 22.7359 49.0509 22.2283 49.1342 22.0622C49.1702 21.99 49.3114 21.7992 49.4002 21.7027C49.4843 21.6112 49.8672 21.4587 50.1037 21.4226C50.311 21.3909 50.8312 21.3285 50.9856 21.3168C51.2054 21.3002 52.4244 21.3079 52.7053 21.3277Z" fill="black"/>
<path fill-rule="evenodd" clip-rule="evenodd" d="M51.0696 15.9856C51.0631 15.9915 50.9031 16.0031 50.7141 16.0112C50.525 16.0193 50.3627 16.0304 50.3533 16.0359C50.3439 16.0415 50.2396 16.0535 50.1212 16.0628C50.0031 16.072 49.899 16.0842 49.8899 16.09C49.881 16.0957 49.7989 16.1072 49.708 16.1155C49.2436 16.158 48.5331 16.3229 48.1235 16.4831C48.0309 16.5194 47.9357 16.555 47.9121 16.5624C47.8135 16.5931 47.8046 16.6672 47.7883 17.592C47.7707 18.5837 47.7671 18.5599 47.9352 18.581C47.9905 18.5879 48.0944 18.5718 48.1957 18.5405C48.5685 18.4253 48.7181 18.3829 49.1103 18.2815C49.6099 18.1524 50.1621 18.0312 50.4685 17.9834C50.9948 17.9014 52.1918 17.9171 52.4369 18.0092C52.4852 18.0274 52.605 18.0609 52.7031 18.0836C52.908 18.1312 53.0706 18.2098 53.2491 18.3477C53.3794 18.4486 53.4595 18.5978 53.5247 18.8608C53.567 19.0322 53.5702 19.0541 53.587 19.3145L53.6029 19.5586L53.3886 19.5406C52.5391 19.4691 51.5734 19.4403 51.1537 19.4739L50.4805 19.528C49.8013 19.5826 48.9595 19.7624 48.5391 19.9427C47.9864 20.1797 47.4544 20.6152 47.3022 20.9551C46.9893 21.6538 46.9236 22.5478 47.1235 23.3819C47.2 23.7005 47.2649 23.8805 47.371 24.0667C47.4078 24.1317 47.4381 24.1955 47.4381 24.2085C47.4381 24.2795 48.0018 24.7898 48.2801 24.9706C48.3527 25.0178 48.4158 25.0649 48.4201 25.0753C48.4244 25.0857 48.4424 25.0943 48.46 25.0943C48.4776 25.0943 48.5658 25.1283 48.6563 25.17C48.7469 25.2116 48.9076 25.2716 49.0134 25.3033C49.1192 25.335 49.2544 25.3776 49.3141 25.3981C49.3735 25.4186 49.6007 25.4666 49.8191 25.5048C50.2148 25.5741 50.2189 25.5743 51.3223 25.5745C52.4369 25.5747 52.7315 25.5583 53.1262 25.4741C53.6762 25.3567 53.9278 25.2865 54.1363 25.1923C54.5733 24.9947 54.6842 24.9272 54.9038 24.7251C55.0435 24.5966 55.2352 24.3943 55.2973 24.3096C55.4125 24.1526 55.6621 23.6226 55.7112 23.4312C55.7389 23.3228 55.7713 23.2157 55.7833 23.1933C55.8329 23.1013 55.9178 22.4809 55.9431 22.0268C55.9621 21.6861 55.9601 20.395 55.9399 20.0312C55.9159 19.5919 55.8603 19.1567 55.7951 18.8978C55.6758 18.4233 55.6087 18.2299 55.4538 17.9133C55.0637 17.116 54.2549 16.4593 53.3186 16.1795C53.1637 16.1332 52.8505 16.0729 52.585 16.038C52.5254 16.0302 52.4496 16.0186 52.4167 16.0123C52.3351 15.9966 51.0842 15.9718 51.0696 15.9856ZM61.9289 16.1292C61.5785 16.1474 61.4936 16.1574 61.0991 16.2268C60.7389 16.2902 60.5118 16.3544 60.2588 16.4644C60.0796 16.5423 60.0007 16.5851 59.7629 16.7344C59.7371 16.7505 59.6496 16.8043 59.5683 16.854C59.3956 16.9598 59.074 17.2917 58.8638 17.5816C58.6976 17.8109 58.4054 18.3991 58.4054 18.5046C58.4054 18.5257 58.39 18.5735 58.3713 18.6108C58.3015 18.7485 58.1651 19.4004 58.1154 19.8327C58.0704 20.2229 58.0656 20.3691 58.0752 21.0769C58.0894 22.1224 58.1372 22.4376 58.4109 23.2911C58.5134 23.6114 58.6462 23.8568 58.9023 24.2007C59.075 24.4324 59.4223 24.7835 59.5599 24.8654C59.6193 24.9008 59.6734 24.9363 59.6801 24.9443C59.7025 24.9713 59.7879 25.0196 60.0048 25.1279C60.2374 25.2442 60.3711 25.2934 60.647 25.3643C60.7434 25.3891 60.882 25.4262 60.9548 25.4468C61.3606 25.5614 61.9708 25.6056 63.0473 25.5984C63.7578 25.5936 63.9203 25.5854 64.1777 25.5416C64.7039 25.4519 65.2605 25.2847 65.5727 25.1224C65.8086 24.9997 65.9209 24.9347 65.9455 24.9064C65.9587 24.8911 66.0614 24.8019 66.1739 24.708C66.4286 24.4956 66.5347 24.3925 66.5347 24.3576C66.5347 24.3427 66.5438 24.3305 66.5552 24.3305C66.5756 24.3305 66.8091 23.9886 66.8106 23.9567C66.8108 23.9477 66.8329 23.9144 66.8596 23.8828C66.8863 23.8513 66.9301 23.7866 66.9573 23.7392C67.0186 23.6317 67.1841 23.2148 67.1841 23.1678C67.1841 23.1487 67.1937 23.1225 67.2055 23.1097C67.2685 23.041 67.4205 22.2104 67.4749 21.6387C67.5011 21.3605 67.4939 20.0844 67.4653 19.945C67.4583 19.9111 67.4458 19.8113 67.4373 19.7232C67.3748 19.0657 67.179 18.369 66.951 17.9929C66.9205 17.9423 66.8955 17.8932 66.8955 17.8837C66.8955 17.8742 66.838 17.7881 66.768 17.6923C66.6978 17.5965 66.6085 17.4738 66.5698 17.4196C66.5309 17.3654 66.4354 17.26 66.3577 17.1855C66.2199 17.0537 65.9257 16.816 65.9002 16.816C65.8933 16.816 65.8389 16.7822 65.779 16.7409C65.6131 16.6261 65.2487 16.4568 64.9649 16.3625C64.7136 16.2791 64.3035 16.2016 63.8289 16.1479C63.5524 16.1166 62.3909 16.1052 61.9289 16.1292ZM72.929 16.1375C72.9241 16.1423 72.8337 16.1532 72.7279 16.1618C72.6221 16.1704 72.465 16.1877 72.3791 16.2004C72.293 16.213 72.1798 16.2295 72.1273 16.237C71.9046 16.269 71.4599 16.411 71.2608 16.5138C71.0472 16.624 70.6463 16.9214 70.525 17.0594C70.4036 17.1978 70.1465 17.697 70.0984 17.8877C70.0476 18.0895 69.9945 18.4333 69.9747 18.6862C69.9493 19.0179 69.9553 25.4037 69.9812 25.4303C70.0058 25.4552 72.1281 25.4581 72.1523 25.4333C72.1622 25.4232 72.1781 23.9819 72.1877 22.2304C72.1973 20.4788 72.2125 19.0069 72.2211 18.9594C72.256 18.7675 72.3385 18.5274 72.3955 18.4505C72.4746 18.3445 72.6521 18.2148 72.7883 18.1638C73.0656 18.0598 73.3744 18.0276 73.9785 18.0393C74.7123 18.0536 74.9074 18.0958 75.1369 18.2898C75.3552 18.4742 75.4199 18.6228 75.45 19.0087C75.462 19.1646 75.4745 20.6391 75.4777 22.2855C75.4808 23.932 75.4892 25.314 75.4967 25.3568C75.5092 25.4288 75.5185 25.4354 75.6222 25.4459C75.8088 25.4646 77.6651 25.4529 77.6846 25.4328C77.6947 25.4225 77.706 23.9978 77.7099 22.2669C77.7137 20.5359 77.7221 19.0578 77.7289 18.9824C77.7353 18.9069 77.7584 18.7794 77.7801 18.699C77.8017 18.6187 77.8251 18.5283 77.8318 18.4983C77.852 18.4077 78.0636 18.2111 78.1914 18.1642C78.5747 18.0233 79.5601 17.9887 80.1443 18.0957C80.4914 18.1593 80.7807 18.3637 80.8521 18.5963C80.9697 18.9787 80.9731 19.0665 80.9878 22.3389C80.9952 24.0283 81.0101 25.4194 81.0207 25.4303C81.052 25.4623 83.0581 25.4731 83.1372 25.4416L83.2046 25.4148L83.1938 22.1194C83.188 20.3069 83.1764 18.763 83.1683 18.6884C83.1 18.0594 83.0319 17.7961 82.8534 17.4686C82.6961 17.1801 82.4672 16.934 82.1774 16.7415C81.4416 16.2533 80.7985 16.1139 79.378 16.1344C78.9745 16.1403 78.6065 16.1514 78.5603 16.1591C78.5139 16.1668 78.422 16.1788 78.3559 16.1859C78.0687 16.2164 77.7086 16.2936 77.3931 16.3924C77.3529 16.4049 77.2067 16.4735 77.0684 16.5447C76.8349 16.6647 76.8034 16.6743 76.6362 16.6768C76.4674 16.6793 76.4404 16.6718 76.2153 16.5605C75.8435 16.3765 75.5837 16.2969 75.109 16.2214C74.5599 16.134 74.4389 16.1259 73.6986 16.1273C73.2801 16.128 72.9338 16.1326 72.929 16.1375ZM37.0232 16.2527C36.932 16.2719 36.8589 16.3396 36.7957 16.4635C36.7692 16.5151 36.7413 16.5628 36.7334 16.5696C36.7254 16.5764 36.6819 16.6373 36.6364 16.7051C36.591 16.7728 36.5323 16.8548 36.5063 16.8872C36.4801 16.9196 36.4154 16.9996 36.3625 17.0649C36.2232 17.2367 36.1735 17.3079 36.1097 17.4257C36.0785 17.4833 36.0441 17.5304 36.0332 17.5304C36.0224 17.5304 36.0138 17.5446 36.0138 17.562C36.0138 17.5793 35.9921 17.6095 35.9657 17.629C35.9392 17.6485 35.9176 17.6775 35.9176 17.6934C35.9176 17.7093 35.9012 17.7287 35.8815 17.7365C35.8615 17.7443 35.8454 17.7667 35.8454 17.7863C35.8454 17.8059 35.8372 17.8257 35.8274 17.8302C35.7903 17.847 35.3644 18.397 35.3644 18.4279C35.3644 18.4357 35.3454 18.4634 35.3223 18.4895C35.2992 18.5155 35.2769 18.5422 35.2554 18.5696C35.1039 18.7697 34.9776 18.9434 34.9093 19.0452C34.8124 19.1897 34.6609 19.3474 34.6501 19.3147C34.646 19.3023 34.5555 19.1701 34.4492 19.021C34.2272 18.7096 34.0695 18.4851 34.0175 18.4065C33.9976 18.3764 33.9369 18.2973 33.8828 18.2307C33.8287 18.164 33.7315 18.0263 33.6671 17.9247C33.6026 17.823 33.5379 17.7288 33.5233 17.7152C33.5086 17.7017 33.4112 17.5686 33.307 17.4196C33.2029 17.2705 33.0622 17.0765 32.9941 16.9884C32.9263 16.9003 32.8342 16.7728 32.7897 16.7051C32.7454 16.6373 32.6949 16.5672 32.6776 16.5492C32.6187 16.4878 32.4999 16.2986 32.5191 16.2968C32.5297 16.2959 32.5167 16.2856 32.4903 16.2739C32.4638 16.2623 31.857 16.252 31.142 16.251C30.1092 16.2496 29.8328 16.2559 29.7989 16.2814C29.7607 16.3099 29.7593 16.3258 29.7847 16.4228C29.8187 16.5522 29.8432 16.5896 30.1479 16.9761C30.2761 17.1387 30.4281 17.3346 30.4856 17.4113C30.5431 17.488 30.6768 17.6614 30.7826 17.7967C30.8885 17.9318 30.9967 18.0733 31.0231 18.1111C31.0496 18.1488 31.0881 18.1971 31.1085 18.2185C31.1819 18.2944 31.3926 18.5557 31.5196 18.7281C31.5903 18.8245 31.7384 19.0129 31.8486 19.147C32.0876 19.4381 32.0903 19.4413 32.1646 19.5507C32.1968 19.5982 32.2293 19.6425 32.2368 19.6493C32.244 19.6561 32.282 19.706 32.3212 19.7602C32.3601 19.8144 32.4034 19.871 32.4171 19.8861C32.4309 19.9011 32.4739 19.9548 32.5126 20.0053C32.5514 20.0557 32.6151 20.1321 32.6543 20.175C32.6937 20.2179 32.77 20.3139 32.8243 20.3884C32.8784 20.463 32.9285 20.5295 32.9355 20.5363C32.9424 20.543 33.0047 20.6188 33.0737 20.7046C33.1817 20.8386 33.1954 20.8667 33.1697 20.903C33.0256 21.1059 32.8441 21.3395 32.7531 21.4387C32.6928 21.5047 32.6252 21.5864 32.6028 21.6203C32.5807 21.6542 32.5446 21.7041 32.5227 21.7312C32.3794 21.9099 32.2618 22.0648 32.2618 22.0746C32.2618 22.081 32.2372 22.1121 32.2077 22.1437C32.1471 22.2079 31.9782 22.4163 31.9291 22.4872C31.9116 22.5125 31.8604 22.5745 31.8151 22.625C31.7699 22.6754 31.7327 22.7258 31.7327 22.7369C31.7327 22.7481 31.7192 22.7711 31.7026 22.788C31.686 22.805 31.6401 22.8615 31.6004 22.9137C31.4977 23.0486 31.3904 23.1787 31.3464 23.2218C31.3257 23.2421 31.2514 23.3363 31.1816 23.4312C31.0455 23.6159 30.9094 23.7864 30.8295 23.8715C30.8024 23.9004 30.773 23.9435 30.7641 23.9671C30.7552 23.9908 30.7369 24.0102 30.7232 24.0102C30.7095 24.0102 30.6985 24.0268 30.6985 24.0471C30.6985 24.0675 30.6898 24.0841 30.6794 24.0841C30.6691 24.0841 30.6412 24.1177 30.6176 24.1587C30.5941 24.1997 30.551 24.2594 30.5224 24.2915C30.4935 24.3236 30.4382 24.3908 30.3995 24.4409C30.3608 24.4909 30.3011 24.5639 30.2672 24.6031C30.2331 24.6423 30.1621 24.737 30.1092 24.8136C30.0563 24.8902 29.9885 24.9796 29.9589 25.0123C29.9291 25.0451 29.9048 25.0824 29.9048 25.0954C29.9048 25.1083 29.8961 25.1189 29.8858 25.1189C29.8504 25.1189 29.7845 25.2619 29.7845 25.3391C29.7845 25.396 29.7987 25.4219 29.8386 25.4383C29.8687 25.4506 30.4652 25.4585 31.1874 25.456C32.4482 25.4516 32.483 25.4502 32.517 25.4026C32.5362 25.3757 32.6019 25.2962 32.6632 25.2258C32.7243 25.1554 32.8077 25.0488 32.8486 24.9889C32.9181 24.8874 33.0971 24.6417 33.1659 24.5538C33.1825 24.5326 33.2488 24.4487 33.3138 24.3674C33.3785 24.2861 33.5057 24.1143 33.5964 23.9855C33.687 23.8568 33.7751 23.7404 33.7919 23.7269C33.8189 23.7052 33.8787 23.6295 34.0062 23.4558C34.1851 23.2124 34.3184 23.0349 34.3299 23.0247C34.3376 23.0179 34.4043 22.9237 34.4781 22.8153C34.627 22.5965 34.7657 22.4334 34.8028 22.4334C34.8163 22.4334 34.8632 22.4903 34.9072 22.5598C34.9512 22.6294 35.051 22.7687 35.1292 22.8695C35.2073 22.9702 35.3425 23.16 35.4296 23.2912C35.59 23.5328 35.6655 23.6376 35.7439 23.7269C35.8076 23.7999 35.9897 24.0551 35.9897 24.0718C35.9897 24.0797 36.0356 24.1495 36.0917 24.2268C36.1477 24.3042 36.216 24.401 36.2437 24.442C36.2711 24.483 36.311 24.5384 36.3324 24.5652C36.4308 24.6877 36.5359 24.8278 36.591 24.9095C36.6239 24.9585 36.6624 25.0118 36.6764 25.028C36.7305 25.0911 36.8556 25.2892 36.8556 25.3121C36.8556 25.3254 36.8887 25.3649 36.9294 25.4L37.0035 25.4638L38.2702 25.4635C38.967 25.4633 39.5606 25.4567 39.589 25.4489C39.6289 25.4379 39.6428 25.4118 39.6501 25.335C39.6556 25.2746 39.6472 25.2227 39.6284 25.2035C39.6113 25.186 39.5974 25.1659 39.5974 25.1588C39.5974 25.1517 39.5618 25.1093 39.5185 25.0646C39.4752 25.0199 39.424 24.9511 39.4043 24.9116C39.3848 24.8721 39.2982 24.7557 39.2118 24.6529C39.1255 24.5501 39.0228 24.4216 38.9834 24.3674C38.8321 24.1586 38.5521 23.8004 38.5341 23.7926C38.5235 23.788 38.5151 23.7704 38.5151 23.7533C38.5151 23.7362 38.4922 23.7011 38.4643 23.6752C38.4364 23.6494 38.3518 23.5451 38.2763 23.4435C38.0579 23.1501 37.9258 22.9766 37.7702 22.7783C37.6748 22.6562 37.5809 22.5331 37.4883 22.4087C37.4133 22.3071 37.345 22.2184 37.3368 22.2116C37.3183 22.1961 37.0441 21.8268 37.0119 21.7736C36.9987 21.7519 36.9645 21.7091 36.9361 21.6786C36.8695 21.6071 36.6631 21.3324 36.6631 21.3153C36.6631 21.3082 36.6386 21.2754 36.609 21.2426C36.4166 21.0305 36.2783 20.8272 36.2783 20.7562C36.2783 20.7283 36.3038 20.6957 36.3385 20.6796C36.3714 20.6642 36.3986 20.6422 36.3986 20.6307C36.3986 20.6192 36.4253 20.586 36.458 20.5569C36.4907 20.5278 36.5472 20.4585 36.5838 20.4031C36.6812 20.2548 36.801 20.0995 36.9467 19.9326C37.1006 19.7565 37.1119 19.7427 37.218 19.6C37.2632 19.539 37.3075 19.4836 37.3161 19.4768C37.3246 19.4701 37.3796 19.398 37.4381 19.3167C37.4965 19.2354 37.5869 19.1176 37.6389 19.0551C37.7438 18.9288 37.757 18.9121 37.9198 18.7007C37.9826 18.6194 38.0485 18.5363 38.0663 18.516C38.0838 18.4956 38.1567 18.4014 38.2279 18.3065C38.2991 18.2117 38.4153 18.062 38.4862 17.9739C38.5569 17.8858 38.632 17.7916 38.6529 17.7645C38.6736 17.7374 38.7352 17.6636 38.7893 17.6005C38.8434 17.5375 38.8987 17.4709 38.9119 17.4527C38.9252 17.4345 38.968 17.3752 39.0072 17.321C39.0873 17.2106 39.2787 16.9741 39.4625 16.7592C39.5899 16.6102 39.6659 16.4565 39.6681 16.3428C39.6693 16.2864 39.6575 16.2741 39.5914 16.2626C39.4788 16.2431 37.1122 16.2339 37.0232 16.2527ZM42.148 16.2962C42.1167 16.3561 42.1235 25.3989 42.1547 25.431C42.181 25.4578 44.3251 25.4578 44.3513 25.431C44.3752 25.4067 44.3713 16.3025 44.3477 16.2782C44.3388 16.2691 43.846 16.2583 43.2527 16.2543C42.1944 16.2471 42.1733 16.2479 42.148 16.2962ZM86.2829 16.2716C86.2278 16.2814 86.197 16.3024 86.1893 16.3355C86.1831 16.3626 86.1768 18.405 86.1751 20.8741C86.1727 25.0146 86.1756 25.3667 86.2122 25.4041C86.2471 25.44 86.3594 25.4463 87.1622 25.4578C87.6629 25.465 88.1457 25.4629 88.2349 25.4531L88.3972 25.4353V16.2807L88.2623 16.2645C88.0988 16.2448 86.3983 16.2509 86.2829 16.2716ZM63.341 18.0248C64.0329 18.0983 64.4882 18.2835 64.7814 18.6109C65.1337 19.0046 65.2302 19.3673 65.2602 20.4131C65.2982 21.7375 65.2184 22.4819 64.9981 22.8522C64.8583 23.087 64.5178 23.3844 64.2381 23.5161C63.8393 23.7036 63.5408 23.7515 62.7707 23.7515C62.1648 23.7515 61.9953 23.7324 61.5958 23.6191C61.2827 23.5302 60.9955 23.3631 60.7867 23.1482C60.6604 23.018 60.4971 22.7092 60.4351 22.4826C60.3271 22.0887 60.2571 21.5127 60.2578 21.0262C60.2598 19.9537 60.3502 19.3623 60.5787 18.9307C60.6823 18.7352 60.9293 18.4405 61.0421 18.3783C61.1725 18.3061 61.3647 18.2067 61.4359 18.1743C61.5138 18.1389 61.8914 18.048 62.0612 18.0238C62.2649 17.9949 63.0644 17.9955 63.341 18.0248ZM52.7053 21.3277C52.8573 21.3384 53.0088 21.3532 53.042 21.3606C53.0749 21.368 53.194 21.3807 53.3066 21.3889C53.4189 21.3971 53.5326 21.4074 53.5591 21.4117C53.5856 21.416 53.6154 21.4204 53.6257 21.4214C53.6488 21.4237 53.6262 22.1143 53.5916 22.4544C53.5646 22.7217 53.4833 23.0264 53.4044 23.1573C53.3015 23.3277 53.0071 23.539 52.82 23.5765C52.7899 23.5825 52.7166 23.6058 52.6572 23.6282C52.4547 23.7046 51.995 23.7358 51.1901 23.7279C50.7732 23.7238 50.3891 23.7131 50.3362 23.7042C50.0332 23.6531 49.7333 23.5567 49.5656 23.4564C49.449 23.3866 49.2619 23.1494 49.182 22.9701C49.0779 22.7359 49.0509 22.2283 49.1342 22.0622C49.1702 21.99 49.3114 21.7992 49.4002 21.7027C49.4843 21.6112 49.8672 21.4587 50.1037 21.4226C50.311 21.3909 50.8312 21.3285 50.9856 21.3168C51.2054 21.3002 52.4244 21.3079 52.7053 21.3277Z" fill="#191919"/>
<path fill-rule="evenodd" clip-rule="evenodd" d="M11.2643 8.00357C11.2585 8.00882 11.0102 8.0201 10.7126 8.02865C8.80949 8.08337 6.81712 8.39972 5.56562 8.84589C4.32782 9.28717 3.35572 9.90413 2.53445 10.7697C2.02483 11.3068 1.65025 11.8447 1.31337 12.5232C0.770052 13.6173 0.495508 14.7126 0.240613 16.8033C0.058209 18.2991 -0.00374678 19.3817 0.000173565 21.004C0.0048876 22.9479 0.161413 24.7276 0.493127 26.6091C0.745231 28.0391 1.23183 29.181 2.03757 30.2335C2.29415 30.5687 2.31698 30.5953 2.60244 30.8933C3.62295 31.9587 4.84192 32.6701 6.27513 33.0367C7.00431 33.2232 8.12392 33.3917 9.14924 33.4693C10.1349 33.544 11.4869 33.5817 13.1778 33.5817C16.5788 33.5817 18.7149 33.222 20.4172 32.3625C21.1674 31.9838 21.7544 31.5517 22.3559 30.9356C23.2267 30.0435 23.7684 29.1293 24.182 27.8533C24.6433 26.431 24.8401 25.1761 24.893 23.32C24.9019 23.0151 24.9122 22.7596 24.9163 22.7522C24.9305 22.7259 24.963 21.029 24.963 20.3018C24.963 18.6657 24.8906 17.4523 24.7217 16.2556C24.5038 14.7109 24.2248 13.6824 23.7611 12.7134C23.363 11.8817 22.93 11.2681 22.2983 10.6405C21.7292 10.0751 21.1085 9.63368 20.3451 9.25142C19.0462 8.60104 17.6353 8.25285 15.8595 8.1444C15.1088 8.09857 15.0376 8.09483 14.4405 8.06987C14.1164 8.05632 13.7376 8.03924 13.5987 8.03195C13.2787 8.0151 11.2786 7.99081 11.2643 8.00357ZM13.5059 16.0404C14.1265 16.1454 14.6604 16.4401 15.1081 16.9246C15.4098 17.2511 15.6056 17.585 15.7378 17.9982C15.8621 18.3871 15.8595 18.2955 15.8595 22.2884C15.8595 25.9727 15.8591 26.0059 15.8114 26.0548C15.7647 26.1026 15.7313 26.104 14.6717 26.104C13.6673 26.104 13.5759 26.1006 13.5293 26.0609L13.4786 26.0178L13.4717 22.7163C13.4653 19.6162 13.4622 19.4059 13.4215 19.2671C13.2617 18.7231 12.8439 18.3003 12.324 18.1562C12.1801 18.1163 11.9763 18.1126 9.76255 18.1097C8.43973 18.1079 7.32917 18.1159 7.29461 18.1275C7.26005 18.139 7.21947 18.1762 7.20442 18.21C7.18433 18.2552 7.17705 19.3007 7.17705 22.1385C7.17705 25.9727 7.17664 26.0059 7.12894 26.0548C7.08226 26.1026 7.04878 26.104 5.99188 26.104C5.04517 26.104 4.89591 26.099 4.84944 26.0657L4.79598 26.0273V21.0642C4.79598 16.1294 4.79624 16.1008 4.84422 16.0517C4.89214 16.0026 4.9197 16.0023 9.09527 16.0038C12.6192 16.005 13.3316 16.0109 13.5059 16.0404ZM20.1056 16.063L20.1647 16.1235V25.9742L20.1148 26.0391L20.065 26.104H17.8593L17.8094 26.0391L17.7596 25.9742V16.1235L17.8186 16.063L17.8776 16.0025H20.0466L20.1056 16.063ZM11.5344 19.9361C11.5766 19.9752 11.5784 20.1023 11.5784 22.9912C11.5784 25.9727 11.5779 26.006 11.5303 26.0548C11.4836 26.1027 11.4501 26.104 10.3278 26.104C9.20535 26.104 9.17195 26.1027 9.12519 26.0548C9.07762 26.006 9.07709 25.9727 9.07709 22.9997C9.07709 20.0267 9.07762 19.9933 9.12519 19.9446C9.17197 19.8967 9.20535 19.8953 10.3319 19.8953C11.3762 19.8953 11.4948 19.8993 11.5344 19.9361Z" fill="black"/>
<path fill-rule="evenodd" clip-rule="evenodd" d="M11.2643 8.00357C11.2585 8.00882 11.0102 8.0201 10.7126 8.02865C8.80949 8.08337 6.81712 8.39972 5.56562 8.84589C4.32782 9.28717 3.35572 9.90413 2.53445 10.7697C2.02483 11.3068 1.65025 11.8447 1.31337 12.5232C0.770052 13.6173 0.495508 14.7126 0.240613 16.8033C0.058209 18.2991 -0.00374678 19.3817 0.000173565 21.004C0.0048876 22.9479 0.161413 24.7276 0.493127 26.6091C0.745231 28.0391 1.23183 29.181 2.03757 30.2335C2.29415 30.5687 2.31698 30.5953 2.60244 30.8933C3.62295 31.9587 4.84192 32.6701 6.27513 33.0367C7.00431 33.2232 8.12392 33.3917 9.14924 33.4693C10.1349 33.544 11.4869 33.5817 13.1778 33.5817C16.5788 33.5817 18.7149 33.222 20.4172 32.3625C21.1674 31.9838 21.7544 31.5517 22.3559 30.9356C23.2267 30.0435 23.7684 29.1293 24.182 27.8533C24.6433 26.431 24.8401 25.1761 24.893 23.32C24.9019 23.0151 24.9122 22.7596 24.9163 22.7522C24.9305 22.7259 24.963 21.029 24.963 20.3018C24.963 18.6657 24.8906 17.4523 24.7217 16.2556C24.5038 14.7109 24.2248 13.6824 23.7611 12.7134C23.363 11.8817 22.93 11.2681 22.2983 10.6405C21.7292 10.0751 21.1085 9.63368 20.3451 9.25142C19.0462 8.60104 17.6353 8.25285 15.8595 8.1444C15.1088 8.09857 15.0376 8.09483 14.4405 8.06987C14.1164 8.05632 13.7376 8.03924 13.5987 8.03195C13.2787 8.0151 11.2786 7.99081 11.2643 8.00357ZM13.5059 16.0404C14.1265 16.1454 14.6604 16.4401 15.1081 16.9246C15.4098 17.2511 15.6056 17.585 15.7378 17.9982C15.8621 18.3871 15.8595 18.2955 15.8595 22.2884C15.8595 25.9727 15.8591 26.0059 15.8114 26.0548C15.7647 26.1026 15.7313 26.104 14.6717 26.104C13.6673 26.104 13.5759 26.1006 13.5293 26.0609L13.4786 26.0178L13.4717 22.7163C13.4653 19.6162 13.4622 19.4059 13.4215 19.2671C13.2617 18.7231 12.8439 18.3003 12.324 18.1562C12.1801 18.1163 11.9763 18.1126 9.76255 18.1097C8.43973 18.1079 7.32917 18.1159 7.29461 18.1275C7.26005 18.139 7.21947 18.1762 7.20442 18.21C7.18433 18.2552 7.17705 19.3007 7.17705 22.1385C7.17705 25.9727 7.17664 26.0059 7.12894 26.0548C7.08226 26.1026 7.04878 26.104 5.99188 26.104C5.04517 26.104 4.89591 26.099 4.84944 26.0657L4.79598 26.0273V21.0642C4.79598 16.1294 4.79624 16.1008 4.84422 16.0517C4.89214 16.0026 4.9197 16.0023 9.09527 16.0038C12.6192 16.005 13.3316 16.0109 13.5059 16.0404ZM20.1056 16.063L20.1647 16.1235V25.9742L20.1148 26.0391L20.065 26.104H17.8593L17.8094 26.0391L17.7596 25.9742V16.1235L17.8186 16.063L17.8776 16.0025H20.0466L20.1056 16.063ZM11.5344 19.9361C11.5766 19.9752 11.5784 20.1023 11.5784 22.9912C11.5784 25.9727 11.5779 26.006 11.5303 26.0548C11.4836 26.1027 11.4501 26.104 10.3278 26.104C9.20535 26.104 9.17195 26.1027 9.12519 26.0548C9.07762 26.006 9.07709 25.9727 9.07709 22.9997C9.07709 20.0267 9.07762 19.9933 9.12519 19.9446C9.17197 19.8967 9.20535 19.8953 10.3319 19.8953C11.3762 19.8953 11.4948 19.8993 11.5344 19.9361Z" fill="#FF6200"/>
<path d="M19.9925 15.9336H17.9095C17.8203 15.9336 17.7481 16.0091 17.7481 16.1022V26.2208C17.7481 26.3131 17.8203 26.3886 17.9095 26.3886H19.9925C20.0809 26.3886 20.1541 26.3131 20.1541 26.2208V16.1022C20.1541 16.0091 20.0809 15.9336 19.9925 15.9336ZM12.8804 15.9336H4.94606C4.85685 15.9336 4.78516 16.0091 4.78516 16.1022V26.2208C4.78516 26.3131 4.85685 26.3886 4.94606 26.3886H7.02952C7.11819 26.3886 7.19169 26.3131 7.19169 26.2208V18.2792C7.19169 18.1875 7.26337 18.1114 7.35257 18.1114H11.8405C13.1026 18.1114 13.4608 19.1405 13.4608 19.8044V26.2208C13.4608 26.3131 13.5333 26.3886 13.6225 26.3886H15.7047C15.7934 26.3886 15.8661 26.3131 15.8661 26.2208V19.0426C15.8661 18.4505 15.7992 17.5991 15.0816 16.8497C14.3309 16.0674 13.646 15.9336 12.8804 15.9336Z" fill="white"/>
<path d="M11.422 19.8923H9.23468C9.1455 19.8923 9.07227 19.9678 9.07227 20.0604V26.2216C9.07227 26.3135 9.1455 26.3891 9.23468 26.3891H11.422C11.5105 26.3891 11.5829 26.3135 11.5829 26.2216V20.0604C11.5829 19.9678 11.5105 19.8923 11.422 19.8923Z" fill="white"/>
</g>
<defs>
<clipPath id="clip0_244_26220">
<rect width="88" height="42" fill="white"/>
</clipPath>
</defs>
</svg>
