<svg width="142" height="42" viewBox="0 0 142 42" fill="none" xmlns="http://www.w3.org/2000/svg">
<g clip-path="url(#clip0_315_7918)">
<path d="M140.277 36.9816C140.277 37.5082 140.174 38.0296 139.972 38.5161C139.77 39.0026 139.475 39.4445 139.102 39.8167C138.729 40.1889 138.287 40.484 137.8 40.6851C137.313 40.8862 136.792 40.9895 136.265 40.989H4.94952C3.8852 40.9901 2.86402 40.5685 2.11055 39.817C1.35708 39.0655 0.933028 38.0456 0.931641 36.9816V5.02386C0.933027 3.95935 1.35692 2.93889 2.11024 2.18655C2.86355 1.43422 3.88472 1.01151 4.94952 1.01123H136.264C136.791 1.01123 137.313 1.11503 137.8 1.31669C138.286 1.51836 138.729 1.81395 139.102 2.18657C139.474 2.55919 139.77 3.00154 139.971 3.48837C140.173 3.9752 140.277 4.49696 140.276 5.02386L140.277 36.9816Z" fill="white"/>
<path d="M136.265 41.9212H4.94935C3.63823 41.9209 2.38078 41.4007 1.45289 40.4746C0.52501 39.5485 0.00249469 38.2923 0 36.9815L0 5.02486C0.00193961 3.71344 0.52411 2.45633 1.45196 1.52932C2.37982 0.602297 3.63758 0.0810629 4.94935 0.0799561L136.264 0.0799561C137.575 0.0816153 138.833 0.603027 139.76 1.52993C140.688 2.45683 141.21 3.71361 141.213 5.02486V36.9815C141.215 39.7061 138.991 41.9212 136.265 41.9212Z" fill="#A6A6A6"/>
<path d="M140.277 36.9816C140.277 37.5082 140.174 38.0296 139.972 38.5161C139.77 39.0026 139.475 39.4445 139.102 39.8167C138.729 40.1889 138.287 40.484 137.8 40.6851C137.313 40.8862 136.792 40.9895 136.265 40.989H4.94952C3.8852 40.9901 2.86402 40.5685 2.11055 39.817C1.35708 39.0655 0.933028 38.0456 0.931641 36.9816V5.02386C0.933027 3.95935 1.35692 2.93889 2.11024 2.18655C2.86355 1.43422 3.88472 1.01151 4.94952 1.01123H136.264C136.791 1.01123 137.313 1.11503 137.8 1.31669C138.286 1.51836 138.729 1.81395 139.102 2.18657C139.474 2.55919 139.77 3.00154 139.971 3.48837C140.173 3.9752 140.277 4.49696 140.276 5.02386L140.277 36.9816Z" fill="black"/>
<path d="M31.5306 20.7804C31.5002 17.4081 34.2926 15.7674 34.4202 15.6911C32.8388 13.386 30.3877 13.0711 29.5264 13.046C27.4677 12.8294 25.4708 14.2775 24.4221 14.2775C23.3525 14.2775 21.7376 13.0669 19.9971 13.1025C17.7574 13.137 15.6621 14.4334 14.513 16.4465C12.1414 20.5512 13.9101 26.5832 16.1823 29.9011C17.3189 31.5271 18.647 33.3404 20.3854 33.2765C22.0861 33.2075 22.7214 32.1936 24.7738 32.1936C26.8073 32.1936 27.4039 33.2765 29.1768 33.2357C31.0021 33.2075 32.1512 31.6035 33.2481 29.9639C34.5615 28.1025 35.089 26.2673 35.11 26.1731C35.0681 26.1584 31.5662 24.8212 31.5306 20.7804ZM28.1815 10.8634C29.0962 9.71973 29.7221 8.16385 29.5483 6.58496C28.2244 6.64355 26.5687 7.50049 25.6152 8.619C24.7717 9.60464 24.0181 11.2202 24.2128 12.7394C25.7 12.8503 27.227 11.9892 28.1815 10.8634Z" fill="white"/>
<path d="M136.264 0.079958H65.9277L93.4773 41.9212H136.264C137.576 41.9201 138.833 41.3991 139.761 40.4726C140.689 39.546 141.211 38.2894 141.214 36.9784V5.02486C141.211 3.71353 140.689 2.45658 139.761 1.52962C138.833 0.602664 137.576 0.0813411 136.264 0.079958Z" fill="url(#paint0_linear_315_7918)"/>
<path d="M56.1647 33.0432H53.7879L52.486 28.9531H47.9605L46.7203 33.0432H44.4062L48.8909 19.1188H51.6602L56.1647 33.0432ZM52.0935 27.2372L50.9161 23.6012C50.7915 23.2298 50.5571 22.355 50.2138 20.9781H50.1719C50.0338 21.5703 49.813 22.445 49.5105 23.6012L48.353 27.2372H52.0935ZM67.6752 27.8995C67.6752 29.6071 67.2116 30.9568 66.2832 31.9477C65.4522 32.8297 64.4192 33.2702 63.1874 33.2702C61.8572 33.2702 60.9006 32.7962 60.3197 31.8462V37.1144H58.0884V26.3028C58.0884 25.2303 58.0601 24.1306 58.0057 23.0027H59.9681L60.0926 24.5942H60.1345C60.8786 23.3951 62.0079 22.7955 63.5234 22.7955C64.7081 22.7955 65.6971 23.2632 66.4884 24.1997C67.2785 25.1382 67.6752 26.3708 67.6752 27.8995ZM65.402 27.9811C65.402 27.0038 65.1822 26.1982 64.7406 25.563C64.2581 24.9028 63.6102 24.5722 62.7981 24.5722C62.2476 24.5722 61.7473 24.7563 61.3004 25.1194C60.8524 25.4856 60.5594 25.9638 60.4223 26.556C60.3611 26.7775 60.3263 27.0054 60.3187 27.2351V28.9102C60.3187 29.6395 60.5427 30.2558 60.9906 30.7601C61.4385 31.2623 62.0204 31.5145 62.7363 31.5145C63.5767 31.5145 64.2309 31.1891 64.6987 30.5435C65.1676 29.8958 65.402 29.042 65.402 27.9811ZM79.2265 27.8995C79.2265 29.6071 78.7628 30.9568 77.8345 31.9477C77.0025 32.8297 75.9705 33.2702 74.7376 33.2702C73.4074 33.2702 72.4508 32.7962 71.87 31.8462V37.1144H69.6386V26.3028C69.6386 25.2303 69.6104 24.1306 69.5559 23.0027H71.5183L71.6428 24.5942H71.6847C72.4278 23.3951 73.5571 22.7955 75.0736 22.7955C76.2573 22.7955 77.2463 23.2632 78.0396 24.1997C78.8288 25.1382 79.2265 26.3708 79.2265 27.8995ZM76.9522 27.9811C76.9522 27.0038 76.7314 26.1982 76.2897 25.563C75.8072 24.9028 75.1615 24.5722 74.3493 24.5722C73.7988 24.5722 73.2986 24.7563 72.8496 25.1194C72.4016 25.4856 72.1096 25.9638 71.9725 26.556C71.9045 26.8322 71.8679 27.0572 71.8679 27.2351V28.9102C71.8679 29.6395 72.0929 30.2558 72.5387 30.7601C72.9867 31.2613 73.5686 31.5145 74.2866 31.5145C75.128 31.5145 75.7821 31.1891 76.2489 30.5435C76.7178 29.8958 76.9522 29.042 76.9522 27.9811ZM92.1415 29.1373C92.1415 30.3227 91.727 31.2864 90.9033 32.0303C89.997 32.8423 88.7317 33.2493 87.1094 33.2493C85.6107 33.2493 84.4092 32.9605 83.5029 32.3819L84.0188 30.5226C84.9974 31.1022 86.0723 31.391 87.2424 31.391C88.0838 31.391 88.7379 31.2006 89.2047 30.8229C89.6725 30.4441 89.9091 29.9377 89.9091 29.3057C89.9091 28.7397 89.7134 28.2657 89.3293 27.8796C88.9431 27.4945 88.3046 27.1357 87.4077 26.8061C84.9691 25.8968 83.7488 24.5669 83.7488 22.8175C83.7488 21.6749 84.18 20.7395 85.0403 20.0081C85.9006 19.2778 87.0414 18.9126 88.4606 18.9126C89.728 18.9126 90.784 19.1334 91.6223 19.5739L91.0624 21.3924C90.2733 20.9655 89.3826 20.7521 88.3863 20.7521C87.5992 20.7521 86.9818 20.9456 86.5401 21.3307C86.1685 21.6749 85.9802 22.0945 85.9802 22.5925C85.9802 23.1419 86.1947 23.5981 86.6217 23.9559C86.9922 24.2855 87.6683 24.6444 88.6458 25.0294C89.8452 25.5128 90.7265 26.0757 91.2906 26.7224C91.8589 27.369 92.1415 28.1757 92.1415 29.1373ZM99.5378 24.6768H97.0783V29.5516C97.0783 30.7915 97.5115 31.4099 98.3802 31.4099C98.779 31.4099 99.1097 31.3764 99.3713 31.3063L99.4331 33.0003C98.9935 33.1645 98.4148 33.2472 97.6978 33.2472C96.8166 33.2472 96.1279 32.9783 95.6308 32.4405C95.1358 31.9027 94.8867 31.0018 94.8867 29.7337V24.6726H93.4214V22.9985H94.8867V21.1601L97.0783 20.4989V22.9985H99.5378V24.6768ZM110.613 27.9403C110.613 29.4836 110.171 30.7507 109.29 31.7416C108.368 32.7617 107.141 33.2702 105.612 33.2702C104.136 33.2702 102.963 32.7816 102.088 31.8054C101.213 30.8271 100.776 29.5945 100.776 28.1077C100.776 26.5518 101.228 25.2774 102.129 24.2865C103.032 23.2946 104.248 22.7987 105.778 22.7987C107.251 22.7987 108.435 23.2883 109.331 24.2656C110.187 25.2136 110.613 26.4378 110.613 27.9403ZM108.3 27.9915C108.3 27.0718 108.101 26.2829 107.702 25.6227C107.234 24.8254 106.565 24.4267 105.697 24.4267C104.803 24.4267 104.118 24.8254 103.651 25.6227C103.251 26.2829 103.052 27.0854 103.052 28.0334C103.052 28.9542 103.251 29.7452 103.651 30.4033C104.133 31.2006 104.806 31.5993 105.678 31.5993C106.531 31.5993 107.2 31.1922 107.683 30.3834C108.094 29.7075 108.3 28.9134 108.3 27.9915ZM117.869 24.9645C117.637 24.9227 117.401 24.902 117.166 24.9028C116.381 24.9028 115.774 25.1979 115.347 25.7922C114.976 26.3153 114.79 26.9766 114.79 27.775V33.0432H112.558V26.1647C112.56 25.1107 112.539 24.0568 112.494 23.0037H114.437L114.519 24.9248H114.58C114.817 24.2646 115.187 23.732 115.696 23.3333C116.162 22.985 116.727 22.7964 117.309 22.7955C117.515 22.7955 117.701 22.8102 117.867 22.8363L117.869 24.9645ZM127.848 27.5479C127.854 27.887 127.826 28.2259 127.767 28.5597H121.072C121.098 29.5516 121.422 30.3112 122.044 30.8344C122.608 31.301 123.337 31.5354 124.233 31.5354C125.224 31.5354 126.129 31.3785 126.942 31.0614L127.291 32.6089C126.341 33.0233 125.219 33.2294 123.924 33.2294C122.367 33.2294 121.145 32.7711 120.255 31.8566C119.368 30.9411 118.923 29.7106 118.923 28.1694C118.923 26.6564 119.336 25.3956 120.164 24.3901C121.031 23.3166 122.202 22.7798 123.675 22.7798C125.123 22.7798 126.219 23.3166 126.963 24.3901C127.552 25.2408 127.848 26.2955 127.848 27.5479ZM125.72 26.9693C125.736 26.307 125.59 25.7367 125.287 25.2544C124.901 24.6329 124.306 24.3232 123.51 24.3232C122.781 24.3232 122.186 24.6255 121.734 25.2324C121.362 25.7148 121.142 26.2944 121.074 26.9672L125.72 26.9693Z" fill="white"/>
<path d="M47.3173 14.1959C46.6967 14.1959 46.1598 14.1655 45.7129 14.1143V7.38226C46.3379 7.28573 46.9695 7.23815 47.602 7.23996C50.1609 7.23996 51.3394 8.49868 51.3394 10.5505C51.3394 12.9173 49.9474 14.1959 47.3173 14.1959ZM47.692 8.10317C47.3466 8.10317 47.0525 8.12409 46.8087 8.17432V13.2919C46.9405 13.3128 47.1938 13.3222 47.5497 13.3222C49.2263 13.3222 50.1808 12.368 50.1808 10.5809C50.1808 8.98731 49.3174 8.10317 47.692 8.10317ZM55.0119 14.2471C53.5697 14.2471 52.6351 13.1705 52.6351 11.7088C52.6351 10.1853 53.5896 9.09926 55.0935 9.09926C56.5148 9.09926 57.4703 10.1247 57.4703 11.6282C57.4703 13.1705 56.4855 14.2471 55.0119 14.2471ZM55.0538 9.90074C54.2615 9.90074 53.7539 10.6415 53.7539 11.6774C53.7539 12.6934 54.2719 13.4342 55.0433 13.4342C55.8146 13.4342 56.3327 12.6421 56.3327 11.6565C56.3327 10.652 55.8251 9.90074 55.0538 9.90074ZM65.6945 9.20076L64.1508 14.1352H63.145L62.5055 11.9923C62.3465 11.4682 62.2141 10.9363 62.1089 10.3988H62.0879C62.0073 10.9366 61.8545 11.4755 61.6923 11.9923L61.012 14.1352H59.9958L58.5431 9.20076H59.6703L60.2292 11.5466C60.361 12.1053 60.472 12.6327 60.5641 13.1307H60.585C60.6656 12.7153 60.7975 12.1964 60.9911 11.5571L61.6923 9.2018H62.5861L63.257 11.5068C63.4192 12.0656 63.5511 12.6138 63.6536 13.1318H63.6829C63.7541 12.6243 63.8661 12.0855 64.0178 11.5068L64.6175 9.2018L65.6945 9.20076ZM71.3775 14.1352H70.2807V11.3018C70.2807 10.4291 69.9458 9.99177 69.2854 9.99177C68.6354 9.99177 68.1885 10.5505 68.1885 11.2003V14.1352H67.0917V10.6112C67.0917 10.1749 67.0812 9.70717 67.0509 9.19971H68.0158L68.0671 9.96143H68.0975C68.3926 9.43409 68.9913 9.09926 69.6621 9.09926C70.6983 9.09926 71.3785 9.89133 71.3785 11.1804L71.3775 14.1352ZM74.4022 14.1352H73.3043V6.93652H74.4022V14.1352ZM78.4012 14.2471C76.96 14.2471 76.0244 13.1705 76.0244 11.7088C76.0244 10.1853 76.9789 9.09926 78.4818 9.09926C79.9041 9.09926 80.8586 10.1247 80.8586 11.6282C80.8597 13.1705 79.8738 14.2471 78.4012 14.2471ZM78.442 9.90074C77.6497 9.90074 77.1421 10.6415 77.1421 11.6774C77.1421 12.6934 77.6613 13.4342 78.4305 13.4342C79.2029 13.4342 79.7199 12.6421 79.7199 11.6565C79.721 10.652 79.2144 9.90074 78.442 9.90074ZM85.1831 14.1352L85.1036 13.567H85.0743C84.7394 14.0243 84.2506 14.2471 83.631 14.2471C82.7467 14.2471 82.1187 13.6277 82.1187 12.7949C82.1187 11.5769 83.1747 10.9471 85.0031 10.9471V10.856C85.0031 10.2063 84.6588 9.88086 83.9785 9.88086C83.4918 9.88086 83.0648 10.0033 82.6891 10.2471L82.4662 9.52616C82.9225 9.24156 83.4918 9.09926 84.1606 9.09926C85.45 9.09926 86.101 9.77937 86.101 11.1406V12.9581C86.101 13.4561 86.123 13.8422 86.1722 14.1362L85.1831 14.1352ZM85.0324 11.6774C83.8142 11.6774 83.203 11.9725 83.203 12.6724C83.203 13.1904 83.518 13.4436 83.9555 13.4436C84.5133 13.4436 85.0324 13.0177 85.0324 12.4391V11.6774ZM91.4271 14.1352L91.3758 13.3431H91.3455C91.0305 13.9416 90.5009 14.2471 89.7609 14.2471C88.571 14.2471 87.6897 13.2008 87.6897 11.7287C87.6897 10.1853 88.6034 9.09822 89.851 9.09822C90.5114 9.09822 90.9792 9.32108 91.2429 9.76891H91.2649V6.93652H92.3628V12.8053C92.3628 13.2824 92.3743 13.7292 92.4036 14.1352H91.4271ZM91.2649 11.2317C91.2649 10.5411 90.8075 9.95201 90.1095 9.95201C89.2963 9.95201 88.7991 10.6729 88.7991 11.6879C88.7991 12.6829 89.3151 13.3641 90.0875 13.3641C90.7772 13.3641 91.2649 12.7645 91.2649 12.0541V11.2317ZM99.3237 14.2471C97.8825 14.2471 96.9479 13.1705 96.9479 11.7088C96.9479 10.1853 97.9024 9.09926 99.4053 9.09926C100.828 9.09926 101.782 10.1247 101.782 11.6282C101.783 13.1705 100.798 14.2471 99.3237 14.2471ZM99.3645 9.90074C98.5733 9.90074 98.0657 10.6415 98.0657 11.6774C98.0657 12.6934 98.5837 13.4342 99.354 13.4342C100.126 13.4342 100.643 12.6421 100.643 11.6565C100.646 10.652 100.138 9.90074 99.3645 9.90074ZM107.681 14.1352H106.583V11.3018C106.583 10.4291 106.248 9.99177 105.588 9.99177C104.938 9.99177 104.492 10.5505 104.492 11.2003V14.1352H103.394V10.6112C103.394 10.1749 103.383 9.70717 103.353 9.19971H104.318L104.369 9.96143H104.4C104.694 9.43409 105.293 9.09822 105.963 9.09822C106.999 9.09822 107.681 9.89028 107.681 11.1793V14.1352ZM115.06 10.0232H113.854V12.4192C113.854 13.0292 114.065 13.3337 114.492 13.3337C114.686 13.3337 114.848 13.3128 114.979 13.2824L115.009 14.1153C114.797 14.1969 114.512 14.2377 114.158 14.2377C113.294 14.2377 112.777 13.7606 112.777 12.5113V10.0232H112.057V9.20076H112.777V8.29674L113.854 7.97133V9.19971H115.06V10.0232ZM120.867 14.1352H119.771V11.3227C119.771 10.4396 119.437 9.99282 118.776 9.99282C118.207 9.99282 117.678 10.3789 117.678 11.1605V14.1352H116.582V6.93652H117.678V9.90074H117.7C118.045 9.36294 118.545 9.09822 119.184 9.09822C120.228 9.09822 120.867 9.91016 120.867 11.2003V14.1352ZM126.816 11.9316H123.524C123.545 12.866 124.164 13.3934 125.079 13.3934C125.566 13.3934 126.014 13.3117 126.41 13.16L126.58 13.9217C126.113 14.1247 125.564 14.2262 124.924 14.2262C123.381 14.2262 122.467 13.2511 122.467 11.7391C122.467 10.2261 123.403 9.0888 124.801 9.0888C126.062 9.0888 126.853 10.0232 126.853 11.4346C126.86 11.6012 126.848 11.768 126.816 11.9316ZM125.81 11.15C125.81 10.3883 125.426 9.85052 124.725 9.85052C124.095 9.85052 123.596 10.3988 123.525 11.15H125.81Z" fill="white"/>
</g>
<defs>
<linearGradient id="paint0_linear_315_7918" x1="103.569" y1="42.0323" x2="103.569" y2="-108.867" gradientUnits="userSpaceOnUse">
<stop stop-color="#1A1A1A" stop-opacity="0.1"/>
<stop offset="0.123" stop-color="#212121" stop-opacity="0.151"/>
<stop offset="0.308" stop-color="#353535" stop-opacity="0.227"/>
<stop offset="0.532" stop-color="#575757" stop-opacity="0.318"/>
<stop offset="0.783" stop-color="#858585" stop-opacity="0.421"/>
<stop offset="1" stop-color="#B3B3B3" stop-opacity="0.51"/>
</linearGradient>
<clipPath id="clip0_315_7918">
<rect width="141.353" height="42" fill="white"/>
</clipPath>
</defs>
</svg>
