<svg width="142" height="42" viewBox="0 0 142 42" fill="none" xmlns="http://www.w3.org/2000/svg">
<g clip-path="url(#clip0_315_7905)">
<path d="M135.948 41.915H5.22876C2.30065 41.915 0 39.6144 0 36.6863V5.31372C0 2.38561 2.30065 0.0849609 5.22876 0.0849609H135.948C138.876 0.0849609 141.176 2.38561 141.176 5.31372V36.6863C141.176 39.6144 138.876 41.915 135.948 41.915Z" fill="black"/>
<path d="M135.948 0.921562C138.353 0.921562 140.34 2.90849 140.34 5.31372V36.6863C140.34 39.0915 138.353 41.0784 135.948 41.0784H5.22876C2.82353 41.0784 0.836601 39.0915 0.836601 36.6863V5.31372C0.836601 2.90849 2.82353 0.921562 5.22876 0.921562H135.948ZM135.948 0.0849609H5.22876C2.30065 0.0849609 0 2.49019 0 5.31372V36.6863C0 39.6144 2.30065 41.915 5.22876 41.915H135.948C138.876 41.915 141.176 39.6144 141.176 36.6863V5.31372C141.176 2.49019 138.876 0.0849609 135.948 0.0849609Z" fill="#A6A6A6"/>
<path d="M49.5675 10.7516C49.5675 11.5882 49.3583 12.3203 48.8355 12.8431C48.208 13.4706 47.476 13.7843 46.5348 13.7843C45.5936 13.7843 44.8616 13.4706 44.2341 12.8431C43.6067 12.2157 43.293 11.4837 43.293 10.5425C43.293 9.60131 43.6067 8.86929 44.2341 8.24184C44.8616 7.61438 45.5936 7.30066 46.5348 7.30066C46.9531 7.30066 47.3714 7.40523 47.7897 7.61438C48.208 7.82353 48.5217 8.03269 48.7309 8.34641L48.208 8.86929C47.7897 8.34641 47.2668 8.13726 46.5348 8.13726C45.9073 8.13726 45.2799 8.34641 44.8616 8.86929C44.3387 9.28759 44.1296 9.91504 44.1296 10.6471C44.1296 11.3791 44.3387 12.0065 44.8616 12.4248C45.3845 12.8431 45.9073 13.1569 46.5348 13.1569C47.2668 13.1569 47.7897 12.9477 48.3126 12.4248C48.6263 12.1111 48.8355 11.6928 48.8355 11.1699H46.5348V10.3333H49.5675V10.7516ZM54.3779 8.13726H51.5544V10.1242H54.1688V10.8562H51.5544V12.8431H54.3779V13.6797H50.7178V7.40523H54.3779V8.13726ZM57.8289 13.6797H56.9923V8.13726H55.2145V7.40523H59.6067V8.13726H57.8289V13.6797ZM62.6394 13.6797V7.40523H63.476V13.6797H62.6394ZM67.0315 13.6797H66.1949V8.13726H64.4171V7.40523H68.7047V8.13726H66.927V13.6797H67.0315ZM76.9662 12.8431C76.3387 13.4706 75.6067 13.7843 74.6655 13.7843C73.7243 13.7843 72.9923 13.4706 72.3649 12.8431C71.7374 12.2157 71.4237 11.4837 71.4237 10.5425C71.4237 9.60131 71.7374 8.86929 72.3649 8.24184C72.9923 7.61438 73.7243 7.30066 74.6655 7.30066C75.6067 7.30066 76.3387 7.61438 76.9662 8.24184C77.5936 8.86929 77.9073 9.60131 77.9073 10.5425C77.9073 11.4837 77.5936 12.2157 76.9662 12.8431ZM72.9923 12.3203C73.4106 12.7386 74.0381 13.0523 74.6655 13.0523C75.293 13.0523 75.9204 12.8431 76.3387 12.3203C76.757 11.902 77.0707 11.2745 77.0707 10.5425C77.0707 9.81046 76.8616 9.18301 76.3387 8.76471C75.9204 8.34641 75.293 8.03269 74.6655 8.03269C74.0381 8.03269 73.4106 8.24184 72.9923 8.76471C72.574 9.18301 72.2603 9.81046 72.2603 10.5425C72.2603 11.2745 72.4694 11.902 72.9923 12.3203ZM79.0577 13.6797V7.40523H79.9988L83.0315 12.3203V7.40523H83.8681V13.6797H83.0315L79.7897 8.55556V13.6797H79.0577Z" fill="white" stroke="white" stroke-width="0.20915" stroke-miterlimit="10"/>
<path d="M71.2158 22.8823C68.706 22.8823 66.719 24.7647 66.719 27.379C66.719 29.8889 68.706 31.8758 71.2158 31.8758C73.7256 31.8758 75.7125 29.9934 75.7125 27.379C75.7125 24.6601 73.7256 22.8823 71.2158 22.8823ZM71.2158 29.9934C69.8563 29.9934 68.706 28.8431 68.706 27.2745C68.706 25.7058 69.8563 24.5555 71.2158 24.5555C72.5752 24.5555 73.7256 25.6013 73.7256 27.2745C73.7256 28.8431 72.5752 29.9934 71.2158 29.9934ZM61.4903 22.8823C58.9805 22.8823 56.9935 24.7647 56.9935 27.379C56.9935 29.8889 58.9805 31.8758 61.4903 31.8758C64.0001 31.8758 65.987 29.9934 65.987 27.379C65.987 24.6601 64.0001 22.8823 61.4903 22.8823ZM61.4903 29.9934C60.1308 29.9934 58.9805 28.8431 58.9805 27.2745C58.9805 25.7058 60.1308 24.5555 61.4903 24.5555C62.8497 24.5555 64.0001 25.6013 64.0001 27.2745C64.0001 28.8431 62.8497 29.9934 61.4903 29.9934ZM49.8824 24.2418V26.1241H54.3792C54.2746 27.1699 53.8563 28.0065 53.3334 28.5294C52.706 29.1568 51.6602 29.8889 49.8824 29.8889C47.0589 29.8889 44.9674 27.6928 44.9674 24.8692C44.9674 22.0457 47.1635 19.8496 49.8824 19.8496C51.3465 19.8496 52.4968 20.4771 53.3334 21.2091L54.6929 19.8496C53.5426 18.8039 52.0785 17.9673 49.987 17.9673C46.2223 17.9673 42.9805 21.1045 42.9805 24.8692C42.9805 28.634 46.2223 31.7712 49.987 31.7712C52.0785 31.7712 53.5426 31.1438 54.7975 29.7843C56.0524 28.5294 56.4707 26.7516 56.4707 25.3921C56.4707 24.9738 56.4707 24.5555 56.3661 24.2418H49.8824ZM97.3596 25.7058C96.9412 24.6601 95.8955 22.8823 93.5948 22.8823C91.2942 22.8823 89.4118 24.6601 89.4118 27.379C89.4118 29.8889 91.2942 31.8758 93.804 31.8758C95.7909 31.8758 97.0458 30.6209 97.4641 29.8889L96.0001 28.8431C95.4772 29.5751 94.8497 30.098 93.804 30.098C92.7582 30.098 92.1308 29.6797 91.6079 28.7385L97.5687 26.2287L97.3596 25.7058ZM91.2942 27.1699C91.2942 25.4967 92.6537 24.5555 93.5948 24.5555C94.3269 24.5555 95.0589 24.9738 95.268 25.4967L91.2942 27.1699ZM86.3792 31.4575H88.3661V18.3856H86.3792V31.4575ZM83.2419 23.8235C82.719 23.3006 81.8824 22.7777 80.8367 22.7777C78.6406 22.7777 76.5491 24.7647 76.5491 27.2745C76.5491 29.7843 78.536 31.6666 80.8367 31.6666C81.8824 31.6666 82.719 31.1438 83.1373 30.6209H83.2419V31.2483C83.2419 32.9215 82.3007 33.8627 80.8367 33.8627C79.6864 33.8627 78.8497 33.0261 78.6406 32.2941L76.9674 33.0261C77.4903 34.1764 78.7452 35.6405 80.9413 35.6405C83.2419 35.6405 85.1243 34.281 85.1243 31.0392V23.0915H83.2419V23.8235ZM80.9413 29.9934C79.5818 29.9934 78.4314 28.8431 78.4314 27.2745C78.4314 25.7058 79.5818 24.5555 80.9413 24.5555C82.3007 24.5555 83.3465 25.7058 83.3465 27.2745C83.3465 28.8431 82.3007 29.9934 80.9413 29.9934ZM106.458 18.3856H101.752V31.4575H103.739V26.5424H106.458C108.654 26.5424 110.745 24.9738 110.745 22.464C110.745 19.9542 108.654 18.3856 106.458 18.3856ZM106.562 24.6601H103.739V20.1634H106.562C108.026 20.1634 108.863 21.4183 108.863 22.3594C108.758 23.5098 107.922 24.6601 106.562 24.6601ZM118.588 22.7777C117.124 22.7777 115.66 23.4052 115.137 24.7647L116.915 25.4967C117.333 24.7647 117.961 24.5555 118.693 24.5555C119.739 24.5555 120.68 25.183 120.784 26.2287V26.3333C120.471 26.1241 119.634 25.8104 118.797 25.8104C116.915 25.8104 115.033 26.8562 115.033 28.7385C115.033 30.5163 116.601 31.6666 118.275 31.6666C119.634 31.6666 120.262 31.0392 120.784 30.4117H120.889V31.4575H122.771V26.4379C122.562 24.1372 120.784 22.7777 118.588 22.7777ZM118.379 29.9934C117.752 29.9934 116.811 29.6797 116.811 28.8431C116.811 27.7973 117.961 27.4836 118.902 27.4836C119.739 27.4836 120.157 27.6928 120.68 27.9019C120.471 29.1568 119.425 29.9934 118.379 29.9934ZM129.36 23.0915L127.163 28.7385H127.059L124.758 23.0915H122.667L126.118 31.0392L124.131 35.4313H126.118L131.451 23.0915H129.36ZM111.791 31.4575H113.778V18.3856H111.791V31.4575Z" fill="white"/>
<path d="M10.8753 7.9281C10.5616 8.24183 10.457 8.7647 10.457 9.39215V32.5033C10.457 33.1307 10.6662 33.6536 10.9799 33.9673L11.0845 34.0719L24.0518 21.1046V20.8954L10.8753 7.9281Z" fill="url(#paint0_linear_315_7905)"/>
<path d="M28.2348 25.4967L23.9473 21.2092V20.8954L28.2348 16.6079L28.3394 16.7124L33.4636 19.6405C34.9277 20.4771 34.9277 21.8366 33.4636 22.6732L28.2348 25.4967Z" fill="url(#paint1_linear_315_7905)"/>
<path d="M28.3391 25.3921L23.9469 21L10.875 34.0718C11.3979 34.5947 12.1299 34.5947 13.0711 34.1764L28.3391 25.3921Z" fill="url(#paint2_linear_315_7905)"/>
<path d="M28.3391 16.6078L13.0711 7.92807C12.1299 7.40519 11.3979 7.50977 10.875 8.03264L23.9469 21L28.3391 16.6078Z" fill="url(#paint3_linear_315_7905)"/>
<path opacity="0.2" d="M28.2345 25.2875L13.0711 33.8627C12.2345 34.3856 11.5025 34.281 10.9796 33.8627L10.875 33.9673L10.9796 34.0719C11.5025 34.4902 12.2345 34.5947 13.0711 34.0719L28.2345 25.2875Z" fill="black"/>
<path opacity="0.12" d="M10.8753 33.8627C10.5616 33.549 10.457 33.0261 10.457 32.3987V32.5033C10.457 33.1307 10.6662 33.6536 10.9799 33.9673V33.8627H10.8753ZM33.4636 22.3595L28.2348 25.2876L28.3394 25.3922L33.4636 22.464C34.1956 22.0457 34.5093 21.5229 34.5093 21C34.5093 21.5229 34.091 21.9412 33.4636 22.3595Z" fill="black"/>
<path opacity="0.25" d="M13.0714 8.03268L33.4636 19.6405C34.091 20.0588 34.5093 20.4771 34.5093 21C34.5093 20.4771 34.1956 19.9542 33.4636 19.5359L13.0714 7.92811C11.6074 7.0915 10.457 7.71895 10.457 9.39216V9.49673C10.457 7.92811 11.6074 7.19608 13.0714 8.03268Z" fill="white"/>
</g>
<defs>
<linearGradient id="paint0_linear_315_7905" x1="22.7969" y1="9.19346" x2="5.24605" y2="26.7433" gradientUnits="userSpaceOnUse">
<stop stop-color="#00A0FF"/>
<stop offset="0.007" stop-color="#00A1FF"/>
<stop offset="0.26" stop-color="#00BEFF"/>
<stop offset="0.512" stop-color="#00D2FF"/>
<stop offset="0.76" stop-color="#00DFFF"/>
<stop offset="1" stop-color="#00E3FF"/>
</linearGradient>
<linearGradient id="paint1_linear_315_7905" x1="35.3815" y1="21.0011" x2="10.0775" y2="21.0011" gradientUnits="userSpaceOnUse">
<stop stop-color="#FFE000"/>
<stop offset="0.409" stop-color="#FFBD00"/>
<stop offset="0.775" stop-color="#FFA500"/>
<stop offset="1" stop-color="#FF9C00"/>
</linearGradient>
<linearGradient id="paint2_linear_315_7905" x1="25.9621" y1="23.401" x2="2.16285" y2="47.2002" gradientUnits="userSpaceOnUse">
<stop stop-color="#FF3A44"/>
<stop offset="1" stop-color="#C31162"/>
</linearGradient>
<linearGradient id="paint3_linear_315_7905" x1="7.63003" y1="0.268981" x2="18.258" y2="10.897" gradientUnits="userSpaceOnUse">
<stop stop-color="#32A071"/>
<stop offset="0.069" stop-color="#2DA771"/>
<stop offset="0.476" stop-color="#15CF74"/>
<stop offset="0.801" stop-color="#06E775"/>
<stop offset="1" stop-color="#00F076"/>
</linearGradient>
<clipPath id="clip0_315_7905">
<rect width="141.176" height="42" fill="white"/>
</clipPath>
</defs>
</svg>
