<svg width="21" height="21" viewBox="0 0 21 21" fill="none" xmlns="http://www.w3.org/2000/svg">
<path fill-rule="evenodd" clip-rule="evenodd" d="M18.0216 1.63247L18.0431 1.65399L18.4673 2.07824L18.4889 2.09977C18.8666 2.47747 19.1818 2.79271 19.4183 3.07131C19.665 3.36187 19.8698 3.66152 19.9867 4.02152C20.1662 4.57384 20.1662 5.1688 19.9867 5.72112C19.8698 6.08111 19.665 6.38075 19.4183 6.67132C19.1818 6.94991 18.8666 7.26517 18.4889 7.64287L18.4673 7.66438L18.0431 8.08866L18.0216 8.11016C17.644 8.48792 17.3286 8.80313 17.05 9.03963C16.7594 9.28633 16.4598 9.49104 16.0998 9.60804C15.5475 9.78753 14.9525 9.78753 14.4002 9.60804C14.0402 9.49104 13.7406 9.28633 13.45 9.03963C13.1714 8.80313 12.8561 8.48783 12.4784 8.11016L12.4569 8.08866L12.0327 7.66438L12.0111 7.64287C11.6334 7.26517 11.3182 6.94991 11.0817 6.67132C10.835 6.38075 10.6302 6.08111 10.5133 5.72112C10.3338 5.1688 10.3338 4.57384 10.5133 4.02152C10.6302 3.66152 10.835 3.36187 11.0817 3.07131C11.3182 2.79271 11.6334 2.47747 12.0111 2.09977L12.0327 2.07824L12.4569 1.65399L12.4784 1.63247C12.8561 1.25475 13.1714 0.939485 13.45 0.702975C13.7406 0.456295 14.0402 0.251565 14.4002 0.134595C14.9525 -0.044865 15.5475 -0.044865 16.0998 0.134595C16.4598 0.251565 16.7594 0.456295 17.05 0.702975C17.3286 0.939485 17.6439 1.25475 18.0216 1.63247ZM3.91957 0.621275H3.95H4.55H4.58044C5.11459 0.621265 5.56044 0.621255 5.92467 0.651015C6.30456 0.682055 6.66121 0.749165 6.99848 0.921005C7.51592 1.18466 7.9366 1.60536 8.2003 2.12281C8.3721 2.46007 8.4392 2.81673 8.4703 3.19661C8.5 3.56084 8.5 4.00666 8.5 4.5408V4.57128V5.17128V5.2017C8.5 5.73585 8.5 6.18173 8.4703 6.54595C8.4392 6.92584 8.3721 7.28249 8.2003 7.61975C7.9366 8.13719 7.51592 8.55793 6.99848 8.82154C6.66121 8.99343 6.30456 9.06053 5.92467 9.09153C5.56044 9.12134 5.11459 9.12134 4.58043 9.12123H4.55H3.95H3.91957C3.38542 9.12134 2.93957 9.12134 2.57533 9.09153C2.19545 9.06053 1.83879 8.99343 1.50153 8.82154C0.98408 8.55793 0.56339 8.13719 0.29973 7.61975C0.12789 7.28249 0.0607805 6.92584 0.0297405 6.54595C-1.95373e-05 6.18173 -9.63354e-06 5.73589 3.66461e-07 5.20175V5.17128V4.57128V4.54084C-9.63354e-06 4.00671 -1.95373e-05 3.56084 0.0297405 3.19661C0.0607805 2.81673 0.12789 2.46007 0.29973 2.12281C0.56339 1.60536 0.98408 1.18466 1.50153 0.921005C1.83879 0.749165 2.19545 0.682055 2.57533 0.651015C2.93956 0.621255 3.38541 0.621265 3.91957 0.621275ZM3.95 11.6212H3.91957C3.38541 11.6212 2.93956 11.6212 2.57533 11.651C2.19545 11.682 1.83879 11.7491 1.50153 11.921C0.98408 12.1846 0.56339 12.6053 0.29973 13.1228C0.12789 13.46 0.0607805 13.8167 0.0297405 14.1966C-1.95373e-05 14.5608 -9.63354e-06 15.0066 3.66461e-07 15.5408V15.5712V16.1712V16.2017C-9.63354e-06 16.7358 -1.95373e-05 17.1817 0.0297405 17.5459C0.0607805 17.9258 0.12789 18.2825 0.29973 18.6197C0.56339 19.1372 0.98408 19.5579 1.50153 19.8215C1.83879 19.9934 2.19545 20.0605 2.57533 20.0915C2.93955 20.1213 3.38537 20.1213 3.91949 20.1212H3.95H4.55H4.58043C5.11455 20.1213 5.56046 20.1213 5.92467 20.0915C6.30456 20.0605 6.66121 19.9934 6.99848 19.8215C7.51592 19.5579 7.9366 19.1372 8.2003 18.6197C8.3721 18.2825 8.4392 17.9258 8.4703 17.5459C8.5 17.1817 8.5 16.7358 8.5 16.2017V16.1712V15.5712V15.5408C8.5 15.0066 8.5 14.5608 8.4703 14.1966C8.4392 13.8167 8.3721 13.46 8.2003 13.1228C7.9366 12.6053 7.51592 12.1846 6.99848 11.921C6.66121 11.7491 6.30456 11.682 5.92467 11.651C5.56044 11.6212 5.11459 11.6212 4.58044 11.6212H4.55H3.95ZM14.9196 11.6212H14.95H15.55H15.5804C16.1146 11.6212 16.5604 11.6212 16.9247 11.651C17.3046 11.682 17.6612 11.7491 17.9985 11.921C18.5159 12.1846 18.9366 12.6053 19.2003 13.1228C19.3721 13.46 19.4392 13.8167 19.4703 14.1966C19.5 14.5608 19.5 15.0067 19.5 15.5408V15.5712V16.1712V16.2017C19.5 16.7358 19.5 17.1817 19.4703 17.5459C19.4392 17.9258 19.3721 18.2825 19.2003 18.6197C18.9366 19.1372 18.5159 19.5579 17.9985 19.8215C17.6612 19.9934 17.3046 20.0605 16.9247 20.0915C16.5605 20.1213 16.1146 20.1213 15.5805 20.1212H15.55H14.95H14.9196C14.3855 20.1213 13.9395 20.1213 13.5753 20.0915C13.1954 20.0605 12.8388 19.9934 12.5015 19.8215C11.9841 19.5579 11.5634 19.1372 11.2997 18.6197C11.1279 18.2825 11.0608 17.9258 11.0297 17.5459C11 17.1817 11 16.7358 11 16.2017V16.1712V15.5712V15.5408C11 15.0067 11 14.5608 11.0297 14.1966C11.0608 13.8167 11.1279 13.46 11.2997 13.1228C11.5634 12.6053 11.9841 12.1846 12.5015 11.921C12.8388 11.7491 13.1954 11.682 13.5753 11.651C13.9396 11.6212 14.3854 11.6212 14.9196 11.6212Z" fill="#666666"/>
</svg>
