<svg width="24" height="24" viewBox="0 0 24 24" fill="none" xmlns="http://www.w3.org/2000/svg">
<path d="M9.70564 13.2396C9.63028 13.2396 8.0494 13.2401 7.32028 13.2394C6.94492 13.2392 6.811 13.1043 6.811 12.7265C6.81052 11.7562 6.81028 10.7859 6.811 9.81557C6.81124 9.44261 6.95284 9.30029 7.3234 9.30005C8.05252 9.29957 9.62476 9.29981 9.70564 9.29981C9.70564 9.23333 9.7054 7.83245 9.70564 7.18733C9.70612 6.23357 9.87628 5.32061 10.3608 4.48469C10.8569 3.62909 11.5788 3.04301 12.504 2.70413C13.0966 2.48693 13.7117 2.40029 14.3405 2.39981C15.1272 2.39933 15.914 2.40005 16.7009 2.40149C17.0391 2.40197 17.1891 2.55149 17.1898 2.89205C17.1912 3.80477 17.1912 4.71749 17.1898 5.62997C17.1893 5.97413 17.0456 6.11237 16.6997 6.11621C16.0548 6.12317 15.4095 6.11885 14.7653 6.14477C14.1147 6.14477 13.7724 6.46253 13.7724 7.13597C13.7568 7.84829 13.766 8.56133 13.766 9.29957C13.8269 9.29957 15.6785 9.29933 16.544 9.29957C16.9371 9.29957 17.0715 9.43469 17.0715 9.82997C17.0715 10.795 17.0712 11.7603 17.0705 12.7253C17.0703 13.1148 16.944 13.2392 16.5485 13.2394C15.6831 13.2399 13.8387 13.2396 13.758 13.2396V21.0504C13.758 21.4668 13.627 21.5996 13.2161 21.5996C12.2144 21.5996 11.2124 21.5998 10.2106 21.5996C9.84748 21.5996 9.70588 21.4584 9.70588 21.0953C9.70564 18.5516 9.70564 13.3289 9.70564 13.2396Z" fill="#3D6AD6"/>
</svg>
