<svg width="22" height="22" viewBox="0 0 22 22" fill="none" xmlns="http://www.w3.org/2000/svg">
<path d="M8.25065 20.1667H13.7507C18.334 20.1667 20.1673 18.3334 20.1673 13.75V8.25004C20.1673 3.66671 18.334 1.83337 13.7507 1.83337H8.25065C3.66732 1.83337 1.83398 3.66671 1.83398 8.25004V13.75C1.83398 18.3334 3.66732 20.1667 8.25065 20.1667Z" stroke="#5B4F4F" stroke-width="0.916667" stroke-linecap="round" stroke-linejoin="round"/>
<path d="M14.2734 16.9583V13.3833" stroke="#5B4F4F" stroke-width="0.916667" stroke-miterlimit="10" stroke-linecap="round" stroke-linejoin="round"/>
<path d="M14.2734 6.82913V5.04163" stroke="#5B4F4F" stroke-width="0.916667" stroke-miterlimit="10" stroke-linecap="round" stroke-linejoin="round"/>
<path d="M14.272 11.5959C15.5883 11.5959 16.6553 10.5288 16.6553 9.21256C16.6553 7.89628 15.5883 6.82922 14.272 6.82922C12.9557 6.82922 11.8887 7.89628 11.8887 9.21256C11.8887 10.5288 12.9557 11.5959 14.272 11.5959Z" stroke="#5B4F4F" stroke-width="0.916667" stroke-miterlimit="10" stroke-linecap="round" stroke-linejoin="round"/>
<path d="M7.72656 16.9583V15.1708" stroke="#5B4F4F" stroke-width="0.916667" stroke-miterlimit="10" stroke-linecap="round" stroke-linejoin="round"/>
<path d="M7.72656 8.61663V5.04163" stroke="#5B4F4F" stroke-width="0.916667" stroke-miterlimit="10" stroke-linecap="round" stroke-linejoin="round"/>
<path d="M7.72708 15.1708C9.04336 15.1708 10.1104 14.1038 10.1104 12.7875C10.1104 11.4712 9.04336 10.4042 7.72708 10.4042C6.41081 10.4042 5.34375 11.4712 5.34375 12.7875C5.34375 14.1038 6.41081 15.1708 7.72708 15.1708Z" stroke="#5B4F4F" stroke-width="0.916667" stroke-miterlimit="10" stroke-linecap="round" stroke-linejoin="round"/>
</svg>
