<svg width="21" height="24" viewBox="0 0 21 24" fill="none" xmlns="http://www.w3.org/2000/svg">
<path d="M19.0601 1.39145C17.205 -0.463769 14.2023 -0.463862 12.347 1.39145C11.9602 1.77831 11.649 2.2201 11.4192 2.70123L11.2282 2.5103C10.9195 2.20154 10.4183 2.2014 10.1094 2.5103L5.63404 6.98569C5.32508 7.29464 5.32508 7.79554 5.63404 8.1045L6.86211 9.33257L1.13639 15.9589C0.395671 16.7191 0.279796 17.8283 0.722061 18.6931C0.253546 19.3552 0 20.1434 0 20.9711C0 22.0278 0.411468 23.0211 1.15861 23.7683C1.46751 24.0772 1.96851 24.0772 2.27742 23.7683C2.58637 23.4593 2.58637 22.9584 2.27742 22.6495C1.50459 21.8766 1.37775 20.6991 1.89576 19.7928C2.77101 20.1697 3.79846 19.9913 4.49254 19.3151L11.1189 13.5895L12.347 14.8176C12.6557 15.1264 13.1569 15.1265 13.4658 14.8176L17.9412 10.3422C18.2501 10.0333 18.2501 9.53235 17.9412 9.2234L17.7503 9.03248C18.2314 8.8026 18.6732 8.49145 19.0601 8.10459C20.9109 6.25364 20.9109 3.24221 19.0601 1.39145ZM3.43846 18.1348C3.42398 18.1474 3.40987 18.1605 3.39632 18.1741C3.08784 18.4825 2.58595 18.4825 2.27751 18.1741C1.96828 17.8648 1.96828 17.3645 2.27751 17.0553C2.29106 17.0417 2.30414 17.0276 2.31675 17.0131L7.98392 10.4544L9.99715 12.4677L3.43846 18.1348ZM12.9064 13.1392L7.31225 7.54504L10.6688 4.18852C10.8898 4.40958 15.9986 9.51843 16.2629 9.78271L12.9064 13.1392ZM17.9412 6.98559C17.5429 7.38393 17.0581 7.66317 16.5233 7.80534L12.6461 3.92822C12.7883 3.39338 13.0676 2.9086 13.4658 2.51026C14.7026 1.27351 16.7043 1.27337 17.9412 2.51026C19.1751 3.74415 19.1751 5.75175 17.9412 6.98559Z" fill="#666666"/>
</svg>
