<svg width="28" height="28" viewBox="0 0 28 28" fill="none" xmlns="http://www.w3.org/2000/svg">
<path d="M14.0225 23.9516C11.3042 23.9516 8.58586 23.5199 6.00753 22.6566C5.02753 22.3183 4.28086 21.6299 3.9542 20.7316C3.61586 19.8333 3.73253 18.8416 4.2692 17.9549L5.61086 15.7266C5.89086 15.2599 6.14753 14.3266 6.14753 13.7783V10.4066C6.14753 6.06662 9.68253 2.53162 14.0225 2.53162C18.3625 2.53162 21.8975 6.06662 21.8975 10.4066V13.7783C21.8975 14.3149 22.1542 15.2599 22.4342 15.7383L23.7642 17.9549C24.2659 18.7949 24.3592 19.8099 24.0209 20.7316C23.6825 21.6533 22.9475 22.3533 22.0259 22.6566C19.4592 23.5199 16.7409 23.9516 14.0225 23.9516ZM14.0225 4.28162C10.6509 4.28162 7.89753 7.02328 7.89753 10.4066V13.7783C7.89753 14.6299 7.54753 15.8899 7.11586 16.6249L5.7742 18.8533C5.51753 19.2849 5.44753 19.7399 5.5992 20.1249C5.7392 20.5216 6.0892 20.8249 6.56753 20.9883C11.4442 22.6216 16.6125 22.6216 21.4892 20.9883C21.9092 20.8483 22.2359 20.5333 22.3875 20.1133C22.5392 19.6933 22.5042 19.2383 22.2709 18.8533L20.9292 16.6249C20.4859 15.8666 20.1475 14.6183 20.1475 13.7666V10.4066C20.1475 7.02328 17.4059 4.28162 14.0225 4.28162Z" fill="#5B4F4F"/>
<path d="M16.1934 4.59671C16.1117 4.59671 16.0301 4.58504 15.9484 4.56171C15.6101 4.46838 15.2834 4.39838 14.9684 4.35171C13.9767 4.22338 13.0201 4.29338 12.1217 4.56171C11.7951 4.66671 11.4451 4.56171 11.2234 4.31671C11.0017 4.07171 10.9317 3.72171 11.0601 3.40671C11.5384 2.18171 12.7051 1.37671 14.0351 1.37671C15.3651 1.37671 16.5317 2.17004 17.0101 3.40671C17.1267 3.72171 17.0684 4.07171 16.8467 4.31671C16.6717 4.50338 16.4267 4.59671 16.1934 4.59671Z" fill="#5B4F4F"/>
<path d="M14.0234 26.6117C12.8684 26.6117 11.7484 26.145 10.9318 25.3284C10.1151 24.5117 9.64844 23.3917 9.64844 22.2367H11.3984C11.3984 22.925 11.6784 23.6017 12.1684 24.0917C12.6584 24.5817 13.3351 24.8617 14.0234 24.8617C15.4701 24.8617 16.6484 23.6834 16.6484 22.2367H18.3984C18.3984 24.6517 16.4384 26.6117 14.0234 26.6117Z" fill="#5B4F4F"/>
</svg>
