<svg width="26" height="26" viewBox="0 0 26 26" fill="none" xmlns="http://www.w3.org/2000/svg">
<path d="M6 10.0833C5.07876 10.0902 4.52441 10.1184 4.08286 10.2353C2.07323 10.7674 0.697376 12.5686 0.751544 14.5963C0.767233 15.1836 0.990822 15.9095 1.438 17.3614C2.51418 20.8554 4.32284 23.8885 8.3746 24.6162C9.11938 24.75 9.95747 24.75 11.6337 24.75L13.8663 24.75C15.5425 24.75 16.3806 24.75 17.1254 24.6162C21.1772 23.8885 22.9858 20.8554 24.062 17.3614C24.5092 15.9095 24.7328 15.1836 24.7485 14.5963C24.8026 12.5686 23.4268 10.7674 21.4171 10.2353C20.9756 10.1184 20.4212 10.0902 19.5 10.0833" stroke="#191919" stroke-width="1.5" stroke-linecap="round"/>
<path d="M12.7507 0.749988L12.7507 15.4167M12.7507 0.749988C13.3752 0.749988 13.8498 1.33412 14.7992 2.50239L16.084 4.08332M12.7507 0.749988C12.1262 0.749988 11.6515 1.33412 10.7021 2.50239L9.41732 4.08332" stroke="#DF3234" stroke-width="1.5" stroke-linecap="round" stroke-linejoin="round"/>
</svg>
